<?xml version="1.0" standalone="no"?>
<!DOCTYPE svg PUBLIC "-//W3C//DTD SVG 1.1//EN" "http://www.w3.org/Graphics/SVG/1.1/DTD/svg11.dtd" >
<svg xmlns="http://www.w3.org/2000/svg" xmlns:xlink="http://www.w3.org/1999/xlink" version="1.1">
<metadata></metadata>
<defs>
<font id="neutonbold" horiz-adv-x="1461" >
<font-face units-per-em="2048" ascent="1638" descent="-410" />
<missing-glyph horiz-adv-x="508" />
<glyph horiz-adv-x="0" />
<glyph unicode="&#xd;" horiz-adv-x="682" />
<glyph unicode=" "  horiz-adv-x="508" />
<glyph unicode="&#x09;" horiz-adv-x="508" />
<glyph unicode="&#xa0;" horiz-adv-x="508" />
<glyph unicode="!" horiz-adv-x="429" d="M47 110q0 55 43 95t123 40q84 0 127.5 -40t43.5 -95q0 -62 -43.5 -101.5t-128.5 -39.5t-125 40.5t-40 100.5zM69 1220q0 38 46 58.5t122 20.5q54 0 82 -14t28 -51q0 -248 -68 -874l-126 24q-5 47 -19.5 171t-23.5 203t-19.5 180.5t-16 172t-5.5 109.5z" />
<glyph unicode="&#x22;" horiz-adv-x="633" d="M83 1282l247 -20l-48 -370l-134 -19zM358 1282l247 -20l-48 -370l-134 -19z" />
<glyph unicode="#" horiz-adv-x="1170" d="M43 296l44 174h229l31 210h-233l45 174h215l44 294l164 10l-45 -304h166l44 294l166 8l-45 -302h259l-42 -174h-244l-31 -210h242l-42 -174h-227l-47 -315l-165 -7l48 322h-166l-47 -315l-165 -7l49 322h-247zM479 470h166l32 210h-166z" />
<glyph unicode="$" horiz-adv-x="952" d="M47 129l23 299l140 -21l50 -207q24 -34 64.5 -58.5t87.5 -31.5l14 386l-6 3q-36 19 -54.5 29t-53.5 30t-54.5 34t-48.5 36t-45.5 41t-36.5 45.5t-30.5 52t-17.5 57t-7 65.5q0 79 27 144.5t74 110.5t108.5 74t133.5 42l-11 132l226 25l-26 -156q113 -18 216 -83l-24 -317 l-136 21l-32 197q-23 30 -93 53l-13 -353q17 -9 51.5 -27t54 -28.5t52 -29t52 -32t46.5 -34.5t43 -39.5t34.5 -43.5t28.5 -50t16.5 -55.5t6.5 -63.5q0 -79 -30.5 -146t-82 -113.5t-113.5 -78t-131 -47.5l6 -152l-229 -20l21 163q-92 14 -176.5 55.5t-124.5 91.5zM320 1001 q0 -55 33.5 -97.5t95.5 -82.5l13 324q-62 0 -102 -36t-40 -108zM490 111q68 12 114 57t46 120q0 48 -38 86.5t-109 79.5z" />
<glyph unicode="%" horiz-adv-x="1465" d="M44 897q0 74 47 147.5t120.5 119.5t146.5 46q11 0 26 -3l10 -93q-24 8 -33 8q-81 0 -81 -225t83 -225t83 225q0 186 -24 306l658 5l234 -2v-52l-472 -563l-432 -617l-278 38l482 576l403 536l-433 -3q47 -41 68.5 -107t21.5 -117q0 -83 -48 -158t-120 -117t-143 -42 q-135 0 -227 87t-92 230zM788 276q0 122 104 218t218 96q124 0 216 -92t92 -224q0 -122 -98.5 -216t-207.5 -94q-132 0 -228 87t-96 225zM1025 272q0 -212 87 -212q23 0 39 16t24 46.5t11.5 66.5t3.5 85q0 98 -20 164t-60 66q-85 0 -85 -232z" />
<glyph unicode="&#x26;" horiz-adv-x="1398" d="M50 296q0 131 75.5 221t217.5 166q-55 49 -90 124t-35 147q0 134 108.5 226t243.5 92q129 0 207.5 -64t78.5 -190q0 -91 -49 -162t-144 -132v-14l189 -204l153 224l-116 40l17 118h448l-16 -118l-172 -48l-214 -317q232 -246 328 -285l39 -14l-23 -103q-67 -21 -150 -21 q-150 0 -284 142l-61 63q-159 -211 -387 -211q-78 0 -142.5 18t-115 55.5t-78.5 100.5t-28 146zM310 393q0 -100 52.5 -169.5t139.5 -69.5q59 0 110.5 38t89.5 96l-271 300l-13 3q-108 -82 -108 -198zM433 1026q0 -52 40.5 -111t91.5 -105q42 37 62.5 74.5t20.5 95.5 q0 76 -30 120.5t-84 44.5q-44 0 -72.5 -35t-28.5 -84z" />
<glyph unicode="'" horiz-adv-x="357" d="M54 1302l247 -20l-48 -370l-134 -19z" />
<glyph unicode="(" horiz-adv-x="533" d="M32 405v31q0 108 16 208t39 174t58 143t64.5 113t66 86t55 59.5t39.5 35.5l89 -95q-38 -50 -66 -100.5t-57.5 -133t-45 -202t-15.5 -270.5q0 -451 194 -752l-100 -78q-69 67 -104 111q-224 278 -233 670z" />
<glyph unicode=")" horiz-adv-x="532" d="M39 -298q194 301 194 752q0 151 -15.5 270.5t-45 202t-57.5 133t-66 100.5l89 95q21 -18 39.5 -35.5t55 -59.5t66 -86t64.5 -113t58 -143t39 -174t16 -208q0 -490 -329 -804l-8 -8z" />
<glyph unicode="*" horiz-adv-x="667" d="M47 888l219 38l-177 176l109 82l103 -194l118 220l108 -78l-155 -169l249 -29l-40 -128l-204 82l44 -234h-137l24 210l-219 -108z" />
<glyph unicode="+" horiz-adv-x="702" d="M52 392l10 134h214v238l149 -12v-226h223l-13 -134h-210l1 -234l-150 8v226h-224z" />
<glyph unicode="," horiz-adv-x="498" d="M61 -252q87 25 130 74.5t43 102.5q0 42 -28.5 70t-72.5 28q-22 0 -42 -7q-23 46 -23 80q0 71 47.5 111.5t114.5 40.5q95 0 152 -62.5t57 -174.5q0 -52 -17 -103t-54 -102t-107.5 -91.5t-166.5 -59.5z" />
<glyph unicode="-" horiz-adv-x="632" d="M61 378l14 138l494 21l-14 -143z" />
<glyph unicode="." horiz-adv-x="455" d="M61 110q0 53 42 92.5t122 39.5q84 0 127 -39t43 -93q0 -61 -43 -99.5t-127 -38.5t-124 39.5t-40 98.5z" />
<glyph unicode="/" horiz-adv-x="720" d="M37 -368l462 1598l181 14l-466 -1600z" />
<glyph unicode="0" horiz-adv-x="1003" d="M55 584q0 132 26.5 239t70.5 177t103.5 117t123 67.5t132.5 20.5q94 0 169.5 -33t136 -104t94 -194t33.5 -290q0 -135 -27 -242t-70 -175t-102.5 -112.5t-120 -63t-125.5 -18.5q-71 0 -132 16t-120 58t-100.5 109t-66.5 176.5t-25 251.5zM359 587q0 -263 30.5 -372 t117.5 -109q75 0 104 113t29 371q0 260 -30.5 366t-114.5 106q-78 0 -107 -107t-29 -368z" />
<glyph unicode="1" horiz-adv-x="887" d="M44 -2l12 101l244 57v817h-233l9 122l458 91h60v-1040l249 -38l-11 -110h-788z" />
<glyph unicode="2" horiz-adv-x="983" d="M49 158l227 177q291 232 291 443q0 271 -171 271q-37 0 -68.5 -18t-48.5 -45l-52 -320l-118 19l-39 328q63 84 197.5 140.5t259.5 56.5q177 0 272 -93t95 -239q0 -85 -33.5 -168.5t-80 -146t-118 -128t-123.5 -104t-120 -83.5l-72 -48h365l108 210l115 -14l-49 -396h-831 z" />
<glyph unicode="3" horiz-adv-x="958" d="M47 42l64 372l132 -16l20 -248q17 -19 49.5 -32.5t65.5 -13.5q95 0 155 53.5t60 149.5q0 105 -85.5 172.5t-233.5 57.5l-25 97q131 30 221.5 98t90.5 166q0 86 -52.5 139.5t-135.5 53.5q-52 0 -94 -30l-52 -291l-126 12l-41 322q38 39 158.5 76.5t226.5 37.5 q91 0 165.5 -14.5t133 -44t90.5 -80t32 -117.5q0 -57 -31.5 -108.5t-83.5 -88t-100.5 -61.5t-101.5 -43v-15q163 -6 261 -79t99 -197q1 -108 -73 -198t-206.5 -143t-294.5 -53q-85 0 -163 19.5t-125 46.5z" />
<glyph unicode="4" horiz-adv-x="1127" d="M47 448l694 770l95 -25q-11 -220 -11 -511v-186h255l-16 -165h-239v-184l216 -45l-10 -103h-707l5 91l242 60v184h-500zM297 496h272v368z" />
<glyph unicode="5" horiz-adv-x="865" d="M46 40l52 368l118 -28l31 -244q42 -52 129 -52q79 0 133.5 50t54.5 135q0 126 -111 205t-322 86l121 608l509 30l-35 -246l-392 -14l-24 -172q136 -4 236 -38t157.5 -90t84.5 -123t27 -147q0 -114 -74.5 -209t-191 -146t-244.5 -51q-168 0 -259 78z" />
<glyph unicode="6" horiz-adv-x="970" d="M53 420q0 114 41.5 225.5t110.5 201t157.5 164.5t182.5 126t186 77l52 -74q-165 -81 -283.5 -219t-148.5 -285h16q86 96 224 96q144 0 236 -94t92 -252q0 -97 -38.5 -176t-101.5 -128t-140.5 -75.5t-160.5 -26.5q-105 0 -187.5 35.5t-133.5 97t-77.5 140t-26.5 167.5z M340 386q0 -75 14 -139t47.5 -109.5t82.5 -45.5q149 0 149 237q0 42 -5.5 80.5t-19.5 80t-44.5 66t-74.5 24.5q-45 0 -83.5 -19.5t-58.5 -46.5q-7 -105 -7 -128z" />
<glyph unicode="7" horiz-adv-x="949" d="M48 746l19 437h837v-89l-444 -1127l-302 31l519 954h-440l-88 -226z" />
<glyph unicode="8" horiz-adv-x="942" d="M47 275q0 181 223 291v12q-178 131 -178 293q0 133 111 231t295 98q156 0 253.5 -80.5t97.5 -193.5q0 -79 -56 -154.5t-142 -111.5l-1 -13q131 -91 187.5 -163.5t56.5 -167.5q0 -146 -125 -244.5t-333 -98.5q-179 0 -284 85.5t-105 216.5zM312 326q0 -106 55.5 -172 t142.5 -66q58 0 95 34t37 92q0 20 -6.5 39.5t-23.5 41t-31 37t-44.5 40.5t-48 38t-57 42t-56.5 42q-36 -39 -49.5 -71.5t-13.5 -96.5zM353 970q0 -58 51.5 -126t139.5 -120q40 24 55.5 59.5t15.5 98.5q0 96 -44 154t-107 58q-53 0 -82 -35.5t-29 -88.5z" />
<glyph unicode="9" horiz-adv-x="949" d="M49 780q0 99 36 182.5t95.5 137.5t135 84t157.5 30q107 0 189.5 -33.5t132.5 -94t75 -139.5t25 -175q0 -203 -80.5 -375.5t-230.5 -285t-343 -137.5l-36 94q185 62 276 175.5t110 277.5l-10 5q-81 -82 -230 -82q-129 0 -215.5 88.5t-86.5 247.5zM329 856q0 -257 134 -257 q36 0 71.5 16t58.5 45q9 60 9 157q0 125 -37.5 203t-103.5 78q-74 0 -103 -58t-29 -184z" />
<glyph unicode=":" horiz-adv-x="423" d="M84 111q0 48 37.5 83.5t109.5 35.5q75 0 114 -35.5t39 -83.5q0 -55 -39 -89.5t-114 -34.5t-111 35.5t-36 88.5zM84 739q0 48 37.5 83.5t109.5 35.5q75 0 114 -35.5t39 -83.5q0 -55 -39 -89.5t-114 -34.5t-111 35.5t-36 88.5z" />
<glyph unicode=";" horiz-adv-x="449" d="M84 -103q78 23 117 67t39 92q0 38 -26 63.5t-65 25.5q-20 0 -38 -7q-21 41 -21 72q0 64 43 100.5t103 36.5q86 0 137 -56t51 -157q0 -37 -8.5 -73t-31 -75.5t-56.5 -71.5t-89 -59t-125 -41zM84 755q0 48 38 83.5t110 35.5q75 0 114 -35.5t39 -83.5q0 -55 -39 -89.5 t-114.5 -34.5t-111.5 35.5t-36 88.5z" />
<glyph unicode="&#x3c;" horiz-adv-x="826" d="M38 419v75l620 480l101 -104l-388 -416l404 -442l-104 -96z" />
<glyph unicode="=" horiz-adv-x="861" d="M62 280l22 165h710l-20 -165h-712zM66 519l22 165h708l-20 -165h-710z" />
<glyph unicode="&#x3e;" horiz-adv-x="825" d="M40 12l404 442l-388 416l101 104l620 -480v-75l-633 -503z" />
<glyph unicode="?" horiz-adv-x="690" d="M42 1142q0 60 50 103.5t163 43.5q91 0 181 -64t148 -171t58 -221q0 -53 -16 -93.5t-41.5 -65.5t-56 -44t-61 -34t-56 -30.5t-41.5 -38.5t-16 -53q0 -37 13 -80l-118 -24q-36 53 -60.5 122t-24.5 118q0 54 32.5 90.5t79 56.5t93 39t79 51t32.5 79q0 50 -42 85t-88 35 q-57 0 -115.5 -20t-84.5 -48q-39 11 -73.5 60.5t-34.5 103.5zM140 110q0 55 43 95t123 40q84 0 127.5 -40t43.5 -95q0 -62 -43 -101.5t-128 -39.5t-125.5 40.5t-40.5 100.5z" />
<glyph unicode="@" horiz-adv-x="1457" d="M53 326q0 142 58.5 272.5t162 229t256.5 157.5t330 59q106 0 202.5 -28.5t173 -81.5t122 -138t45.5 -190q0 -104 -40.5 -201.5t-108.5 -169.5t-161 -115.5t-194 -43.5q-64 0 -104 28.5t-38 87.5h-11q-36 -53 -86 -86.5t-100 -33.5q-80 0 -132 69.5t-52 192.5 q0 187 132.5 322.5t327.5 135.5q91 0 164 -16l18 -20l-40 -366q-11 -70 -9.5 -127t31.5 -57q64 0 115.5 58t76 137.5t24.5 156.5q0 183 -113 283.5t-296 100.5q-126 0 -232 -47t-175.5 -126.5t-107.5 -182t-38 -215.5q0 -227 135 -356t392 -129q101 0 200 35t157 83l40 -88 q-204 -140 -452 -140q-142 0 -264 35.5t-213.5 102.5t-143.5 173t-52 239zM593 378q0 -81 18 -112.5t51 -31.5q46 0 96 42l50 399q-4 0 -23 5.5t-37 5.5q-38 0 -69 -33.5t-49 -83.5t-27.5 -100.5t-9.5 -90.5z" />
<glyph unicode="A" d="M45 0l14 106l154 79l414 1036l248 48l390 -1088l143 -69l-11 -113h-620l14 106l169 79l-74 208h-405l-74 -210l187 -68l-13 -114h-536zM535 548h301l-146 436z" />
<glyph unicode="B" horiz-adv-x="1228" d="M46 0l13 106l166 63v887l-170 37l10 118q331 46 540 46q129 0 226 -25t152.5 -68t82 -94.5t26.5 -110.5q0 -85 -55 -164.5t-150 -112.5v-9q143 -8 220.5 -96t77.5 -197q0 -170 -140 -275t-418 -105h-581zM507 141h166q102 0 164 58.5t62 148.5q0 98 -65 166.5t-176 68.5 h-151v-442zM507 708h216q96 63 96 195q0 98 -58.5 160.5t-187.5 62.5q-31 0 -66 -6v-412z" />
<glyph unicode="C" horiz-adv-x="1232" d="M47 586q0 93 23 184.5t77.5 183t134.5 161t205 112.5t278 43q107 0 218 -26.5t172 -73.5l-30 -378l-130 18l-52 226q-35 44 -99.5 70t-138.5 26q-163 0 -258.5 -117.5t-95.5 -332.5q0 -248 122.5 -386t325.5 -138q181 0 348 123l48 -105q-67 -79 -203.5 -140.5 t-296.5 -61.5q-294 0 -471 162t-177 450z" />
<glyph unicode="D" horiz-adv-x="1444" d="M43 0l18 106l176 79v868l-172 38l8 117q316 50 552 50q129 0 236.5 -17.5t186 -48.5t139.5 -76t100 -96t64.5 -113t35.5 -124t10 -131q0 -103 -33.5 -199t-101 -178.5t-161.5 -143.5t-223.5 -96t-278.5 -35h-556zM517 153h110q103 0 184.5 27t132.5 71t84.5 103t47 119 t13.5 125q0 97 -30.5 185.5t-89.5 162t-157.5 117t-224.5 43.5q-22 0 -37.5 -2t-32.5 -3v-948z" />
<glyph unicode="E" horiz-adv-x="1236" d="M46 1134l15 110h1084l-31 -369l-129 19l-62 218h-407v-428h235l44 129l144 27l-34 -424l-139 -23l-33 169h-217v-411h429l122 226l124 -15l-30 -362h-1104l10 106l165 63v909z" />
<glyph unicode="F" horiz-adv-x="1183" d="M45 1134l15 110h1080l-50 -366l-127 20l-47 214h-400v-474h233l46 132l147 30l-40 -446l-135 -28l-32 180h-219v-332l230 -61l-15 -113h-675l12 106l164 63v909z" />
<glyph unicode="G" horiz-adv-x="1381" d="M47 579q0 128 39.5 239.5t108.5 192t159 139t193 87.5t209 29q150 0 252.5 -24.5t198.5 -67.5l-32 -380l-138 14l-38 205q-111 111 -292 111q-75 0 -136.5 -25.5t-110 -78.5t-75 -141.5t-26.5 -206.5q0 -152 47.5 -274.5t141 -196t217.5 -73.5q108 0 178 49v217l-228 52 l17 127h608l-17 -115l-114 -57v-315q-81 -50 -220 -82t-273 -32q-328 0 -498.5 162t-170.5 445z" />
<glyph unicode="H" horiz-adv-x="1576" d="M47 1131l18 113h632l-15 -113l-167 -53v-360h537v355l-182 58l14 113h637l-15 -113l-168 -53v-916l180 -48l-12 -114h-632l12 106l166 63v372h-537v-379l183 -48l-16 -114h-629l10 106l168 63v904z" />
<glyph unicode="I" horiz-adv-x="755" d="M49 1131l15 113h636l-13 -118l-174 -52v-906l181 -48l-12 -120h-628l8 108l172 63v902z" />
<glyph unicode="J" horiz-adv-x="763" d="M35 -194q220 193 220 435v832l-180 58l15 113h631l-15 -113l-170 -53l-1 -668q0 -125 -12.5 -215t-39 -161.5t-78 -132t-116.5 -112t-168 -115.5z" />
<glyph unicode="K" horiz-adv-x="1452" d="M47 1131l22 113h630l-15 -113l-154 -71v-878l192 -68l-11 -114h-660l14 106l186 79v870zM563 594l2 46q71 77 108 129l209 293l-71 63l18 119h506l-20 -113l-201 -71l-303 -391l193 -241q57 -72 85.5 -107t67.5 -78t68 -63t65.5 -39t80.5 -30l30 -9l-20 -100 q-32 -12 -86.5 -19t-89.5 -7q-73 0 -136.5 23.5t-118.5 70t-99.5 102t-93.5 132.5z" />
<glyph unicode="L" horiz-adv-x="1188" d="M47 1133l16 111h647l-15 -111l-184 -73v-912l356 -11l152 261l126 -18l-42 -380h-1051l13 106l162 63v889z" />
<glyph unicode="M" horiz-adv-x="1821" d="M43 0l16 114l168 63l65 901l-183 50l12 116h505l75 -200l208 -618l234 636l68 182h498l-14 -116l-165 -46l61 -910l179 -52l-12 -120h-589l18 114l138 63l-54 713l-303 -850l-205 -28l-292 865l-48 -705l156 -52l-18 -120h-518z" />
<glyph unicode="N" horiz-adv-x="1445" d="M51 1128l13 116h395l587 -842v671l-186 58l18 113h526l-20 -113l-167 -53v-1070l-218 -38l-588 820v-628l181 -48l-12 -114h-528l10 106l168 63v891z" />
<glyph unicode="O" horiz-adv-x="1397" d="M47 619q0 294 180 472.5t500 178.5q292 0 457.5 -172t165.5 -482q0 -288 -188.5 -465.5t-504.5 -177.5q-150 0 -267 48.5t-191.5 135.5t-113 204t-38.5 258zM363 674q0 -58 7.5 -117.5t23 -123t43 -118.5t64.5 -99t90 -69.5t117 -25.5q319 0 319 452q0 57 -7.5 116.5 t-22.5 124.5t-43 121t-64.5 101.5t-91 72t-119.5 26.5q-89 0 -152 -34.5t-98 -99t-50.5 -144t-15.5 -183.5z" />
<glyph unicode="P" horiz-adv-x="1181" d="M44 0l17 106l176 63v887l-180 37l12 118q331 50 562 50q91 0 164 -10t139 -36t110 -67t69.5 -106.5t25.5 -151.5q0 -178 -138 -299t-341 -121q-31 0 -91 4l-24 128l36 1q134 2 202 66t68 179q0 117 -64 191t-192 74q-42 0 -84 -7v-928l238 -58l-18 -120h-687z" />
<glyph unicode="Q" horiz-adv-x="1399" d="M47 608q0 144 48.5 266t136.5 209.5t217.5 137t285.5 49.5q290 0 453.5 -170.5t163.5 -473.5q0 -227 -122.5 -397t-326.5 -224q46 -96 150 -153.5t283 -89.5q0 -9 -6.5 -53.5t-8.5 -51.5q-104 -41 -230 -41q-105 0 -191 38.5t-140 121.5q-49 78 -49 184v16q-21 -3 -52 -3 q-193 0 -332.5 82t-209.5 224t-70 329zM356 675q0 -74 13 -146t44.5 -145.5t78 -130t120.5 -96t165 -47.5q78 27 130 72t78.5 107t37 127.5t10.5 151.5q0 72 -12 145t-39.5 145.5t-67.5 128t-101.5 90t-135.5 34.5q-162 0 -241.5 -113t-79.5 -323z" />
<glyph unicode="R" horiz-adv-x="1419" d="M45 0l15 106l178 63v879l-181 38l11 119q119 19 280 34t266 15q268 0 406 -75.5t138 -252.5q0 -113 -82.5 -209t-198.5 -137l151 -206q46 -63 72.5 -95.5t65.5 -72t79 -61.5t89 -35l36 -10l-23 -100q-74 -24 -169 -24q-142 0 -239 76t-171 216l-124 230h-124v-320 l165 -59l-11 -119h-629zM520 648h175q159 69 159 226q0 107 -70 177.5t-188 70.5q-18 0 -35.5 -1t-28 -1.5t-12.5 -0.5v-471z" />
<glyph unicode="S" horiz-adv-x="984" d="M51 124l23 314l140 -21l40 -187q30 -44 90 -72.5t126 -28.5q74 0 128 42t54 113q0 46 -32.5 84t-84 66t-113.5 56.5t-124.5 63.5t-114 78t-84 108t-32.5 146q0 75 26.5 138.5t71.5 107.5t105 75t126 46t136 15q84 0 177.5 -27t140.5 -69l-26 -322l-136 22l-32 166 q-24 39 -79.5 68.5t-112.5 29.5q-65 0 -104.5 -37.5t-39.5 -106.5q0 -49 34 -89t89 -70.5t121 -60.5t132.5 -66.5t121.5 -80.5t89 -110t34 -147q0 -78 -31.5 -144.5t-83 -111t-117 -76t-133 -46t-131.5 -14.5q-135 0 -241.5 42t-152.5 106z" />
<glyph unicode="T" horiz-adv-x="1280" d="M47 1244h1187l-33 -393l-139 23l-51 238h-244v-951l193 -45l-15 -116h-638l10 107l173 58v947h-237l-70 -264l-131 19z" />
<glyph unicode="U" horiz-adv-x="1535" d="M41 1131l21 113h631l-15 -113l-168 -53v-552q0 -182 86 -269.5t236 -87.5q138 0 215 84t77 257l1 563l-179 58l14 113h532l-14 -113l-166 -53l-4 -538q-3 -288 -137 -427.5t-404 -139.5q-56 0 -103 4t-104.5 16.5t-102.5 34t-89.5 59.5t-74 90t-47.5 128t-18 171v597z " />
<glyph unicode="V" horiz-adv-x="1463" d="M43 1128l14 116h648l-17 -116l-166 -50l274 -742l269 740l-178 52l11 116h520l-11 -116l-133 -50l-409 -1058l-253 -44l-423 1100z" />
<glyph unicode="W" horiz-adv-x="2019" d="M43 1128l10 116h635l-25 -120l-160 -46l198 -700l228 819l257 33l227 -836l207 684l-174 48l16 118h514l-18 -116l-127 -46l-350 -1061l-244 -45l-234 860l-232 -815l-254 -45l-316 1098z" />
<glyph unicode="X" horiz-adv-x="1363" d="M46 0l18 116l128 61l346 425l-340 466l-132 48l20 128h580l-19 -123l-124 -55l204 -297l215 301l-142 55l20 119h471l-16 -116l-129 -56l-321 -422l367 -480l118 -40l-19 -130h-573l20 120l126 56l-223 310l-227 -312l154 -49l-22 -125h-500z" />
<glyph unicode="Y" horiz-adv-x="1310" d="M41 1128l22 116h584l-20 -116l-116 -49l213 -389l207 386l-140 52l16 116h460l-18 -116l-119 -50l-331 -564v-346l166 -58l-12 -110h-604l14 106l154 63v325l-340 582z" />
<glyph unicode="Z" horiz-adv-x="1136" d="M53 170l688 939h-439l-70 -251l-145 24l10 362h980l-4 -116l-724 -975l464 -15l154 266l122 -20l-59 -384h-967z" />
<glyph unicode="[" horiz-adv-x="540" d="M34 -377l2 1632h395l21 -125l-228 -20v-1336l232 -20l-19 -130z" />
<glyph unicode="\" horiz-adv-x="720" d="M37 1304l185 -13l461 -1684l-178 11z" />
<glyph unicode="]" horiz-adv-x="538" d="M41 -246l232 20v1336l-228 20l21 125h395l2 -1632l-403 1z" />
<glyph unicode="^" horiz-adv-x="740" d="M49 826l265 411l100 13l274 -426l-89 -36l-243 230h-11l-214 -224z" />
<glyph unicode="_" horiz-adv-x="961" d="M60 -131l14 143h827l-13 -143h-828z" />
<glyph unicode="`" horiz-adv-x="508" d="M75 1658l217 38l140 -340l-157 -33z" />
<glyph unicode="a" horiz-adv-x="928" d="M51 178q0 130 118.5 221.5t340.5 99.5v75q0 91 -39 152t-112 61q-52 0 -69 -44t-27 -171q-38 0 -66 4t-57.5 15t-45 36t-15.5 62q0 54 65 109.5t160.5 90.5t180.5 35q260 0 260 -307v-315v-22q0 -21 1 -39.5t3.5 -24.5t7 -18t11 -16t16.5 -11t24 -11t32 -7l39 -7 l-19 -128q-64 -39 -159 -39q-77 0 -111.5 35t-48.5 97l-3 14l-12 3q-24 -56 -98.5 -104t-168.5 -48q-93 0 -150.5 52.5t-57.5 149.5zM287 247q0 -37 25.5 -66t69.5 -29q65 0 128 59v202q-223 -37 -223 -166z" />
<glyph unicode="b" horiz-adv-x="1085" d="M41 1154l21 120l327 24l40 -39v-395l-14 -104l12 -2q67 76 132 116t143 40q153 0 245.5 -119t92.5 -311q0 -116 -43.5 -213t-116.5 -160.5t-167.5 -98.5t-197.5 -35q-77 0 -171 18.5t-155 54.5v1027zM429 207q66 -63 168 -63q77 0 128 75.5t51 208.5q0 50 -8.5 96 t-26.5 88.5t-51.5 68t-79.5 25.5q-95 0 -181 -81v-418z" />
<glyph unicode="c" horiz-adv-x="835" d="M41 420q0 94 28 177.5t75.5 144t109.5 104.5t130.5 66t137.5 22q123 0 193.5 -56.5t70.5 -141.5q0 -63 -44.5 -98t-120.5 -42q-35 100 -72 147.5t-89 47.5q-78 0 -120 -71t-42 -209q0 -50 10 -100.5t32 -98.5t52.5 -85t75.5 -59.5t98 -22.5q72 0 121 16.5t103 49.5 l32 -81q-40 -67 -136.5 -113.5t-205.5 -46.5t-193.5 34t-138 95t-80.5 142.5t-27 178.5z" />
<glyph unicode="d" horiz-adv-x="1086" d="M48 383q0 137 58 256.5t165 193t239 73.5q36 0 78.5 -10.5t64.5 -25.5h6l-11 100v109l-163 78l20 119l334 26l40 -40v-967q0 -73 25 -97.5t99 -45.5l36 -10l-18 -126q-57 -21 -96.5 -30t-94.5 -9q-75 0 -118.5 37t-56.5 102l-3 10l-11 2q-49 -68 -111.5 -108t-156.5 -40 q-147 0 -236 111t-89 292zM305 464q0 -130 48.5 -207.5t131.5 -77.5q41 0 84 18.5t76 46.5v394q-38 55 -85.5 84t-88.5 29q-55 0 -94 -42t-55.5 -105t-16.5 -140z" />
<glyph unicode="e" horiz-adv-x="820" d="M41 429q0 109 38.5 204t100.5 157.5t139.5 98t157.5 35.5q130 0 208.5 -93t78.5 -251q0 -24 -7 -80.5t-12 -83.5l-451 -10q3 -51 17.5 -94t42 -77.5t72 -54.5t102.5 -20q67 0 123 10t115 41l20 -113q-61 -63 -155.5 -95.5t-192.5 -32.5q-82 0 -153.5 29t-126 85t-86 145 t-31.5 200zM290 510l236 24q6 19 6 67q0 72 -27 114.5t-84 42.5q-53 0 -90.5 -67t-40.5 -181z" />
<glyph unicode="f" horiz-adv-x="719" d="M45 0l12 116l153 57v569h-149l10 111l138 23q9 102 47 184.5t95 135t126.5 81t143.5 28.5q234 0 234 -133q0 -49 -45 -91t-93 -50q-27 43 -45 68.5t-50 51t-63 25.5q-55 0 -85 -44.5t-31 -163.5l-2 -98h260l-12 -128h-248v-562l246 -52l-8 -128h-634z" />
<glyph unicode="g" horiz-adv-x="1008" d="M35 -156q0 51 48.5 99t110.5 69v12q-95 46 -95 145q0 50 58 102t123 71l-1 12q-52 18 -108 92t-56 160q0 124 104.5 219t252.5 95t245 -63l225 24l25 -29l-42 -152l-25 -2l-107 34l-2 -10q18 -50 18 -95q0 -94 -52.5 -166.5t-131.5 -108t-168 -35.5q-30 0 -78 9 q-38 -40 -38 -69q0 -61 140 -61h136q151 0 229.5 -50t78.5 -173q0 -138 -150 -248.5t-366 -110.5q-66 0 -127 10.5t-119 35t-93 72t-35 112.5zM262 -94q0 -149 215 -149q208 0 208 141q0 59 -45.5 82t-157.5 23h-185q-1 -3 -10.5 -17t-17 -34t-7.5 -46zM335 626 q0 -55 16.5 -98t40 -64t42.5 -31.5t29 -10.5q69 0 97.5 41.5t28.5 145.5q0 26 -7.5 59t-23 68t-44 58.5t-65.5 23.5q-54 0 -84 -48t-30 -144z" />
<glyph unicode="h" horiz-adv-x="1182" d="M48 1157l18 120l340 25l42 -40v-388l-18 -120l12 -2q152 162 298 162q116 0 180 -67.5t64 -227.5v-449l147 -49l-17 -122h-443l6 115l67 56l2 334q0 94 -37.5 136t-96.5 42q-83 0 -156 -70v-440l130 -50l-20 -123h-514l14 118l148 55v908z" />
<glyph unicode="i" horiz-adv-x="664" d="M48 0l10 128l153 45v502l-149 82l22 125l328 24l40 -40v-693l161 -46l-11 -127h-554zM143 1166q0 57 48 94.5t127 37.5q82 0 131 -38.5t49 -95.5q0 -59 -47.5 -99.5t-132.5 -40.5q-86 0 -130.5 40.5t-44.5 101.5z" />
<glyph unicode="j" horiz-adv-x="608" d="M35 -254q30 22 48 36t46 40t45.5 49t38.5 58.5t33 72.5t20 87t8 106v473l-148 84l26 131l322 22l42 -39v-716q0 -90 -23 -166t-57 -128t-86 -96.5t-98 -71.5t-104 -53l-48 -17zM200 1161q0 60 49.5 100.5t130.5 40.5q83 0 131.5 -41t48.5 -101q0 -62 -48 -105t-134 -43 q-87 0 -132.5 43t-45.5 106z" />
<glyph unicode="k" horiz-adv-x="1158" d="M50 0l13 128l152 45v899l-162 77l23 124l338 25l43 -42v-1083l134 -46l-18 -127h-523zM479 417l6 33l222 318l-134 49l16 117h480l-21 -112l-148 -53l-201 -274l46 -61q116 -161 179 -227.5t145 -97.5l40 -17l-19 -92q-2 0 -19.5 -3.5t-35.5 -6.5t-46.5 -5.5t-54.5 -2.5 q-101 0 -178.5 68.5t-187.5 232.5z" />
<glyph unicode="l" horiz-adv-x="663" d="M50 0l13 128l152 45v903l-162 78l23 124l339 24l41 -40v-1089l158 -46l-13 -127h-551z" />
<glyph unicode="m" horiz-adv-x="1713" d="M51 0l13 116l146 56v508l-151 66l18 121l354 35l28 -30l-20 -114l12 -2q138 156 294 156q178 0 222 -166l14 -2q143 164 296 164q241 0 241 -283v-453l143 -50l-18 -122h-430l3 116l63 56v335q0 84 -34 129t-98 45q-84 0 -160 -73v-436l139 -50l-17 -122h-430l5 116 l65 56v335q0 85 -35.5 129.5t-96.5 44.5q-95 0 -164 -69v-440l134 -50l-20 -122h-516z" />
<glyph unicode="n" horiz-adv-x="1188" d="M49 0l14 115l146 57v508l-148 67l19 122l351 34l27 -29l-20 -115l13 -3q144 158 294 158q116 0 180 -72t64 -214v-456l146 -50l-16 -122h-443l5 115l69 57v331q0 179 -135 179q-94 0 -162 -68v-442l136 -50l-22 -122h-518z" />
<glyph unicode="o" horiz-adv-x="989" d="M50 446q0 110 41 203t108 152.5t149 92.5t167 33q205 0 317 -120.5t112 -340.5q0 -221 -126.5 -357t-325.5 -136q-115 0 -202 38t-138 104.5t-76.5 149.5t-25.5 181zM306 512q0 -117 20.5 -202t71 -138t127.5 -53q81 0 121 63.5t40 175.5q0 61 -5.5 116t-20 110.5 t-37.5 95.5t-61 65t-87 25q-88 0 -128.5 -69.5t-40.5 -188.5z" />
<glyph unicode="p" horiz-adv-x="1084" d="M37 -371l12 118l154 54v883l-152 63l19 123l353 32l30 -28l-18 -106l10 -3q45 64 114.5 109.5t159.5 45.5q66 0 122 -25.5t101.5 -76.5t71 -138t25.5 -202q0 -231 -133 -364t-339 -133q-89 0 -125 13l-1 58v-252l200 -51l-17 -120h-587zM441 167q68 -32 154 -32 q89 0 139.5 69.5t50.5 193.5q0 148 -40.5 228t-121.5 80q-86 0 -182 -78v-461z" />
<glyph unicode="q" horiz-adv-x="1074" d="M49 399q0 130 66 250t176 193.5t231 73.5q82 0 174 -41l143 39l40 -4v-1104l159 -50l-14 -120h-542l14 118l152 52v816q-24 50 -72.5 85t-99.5 35q-84 0 -131 -69.5t-47 -195.5q0 -145 51 -227.5t130 -82.5q41 0 87 11t74 30l-2 -127q-49 -53 -123.5 -77t-141.5 -24 q-145 0 -234.5 105t-89.5 314z" />
<glyph unicode="r" horiz-adv-x="813" d="M48 1l16 117l150 54v514l-152 63l20 122l326 33l31 -32l-19 -185l19 -5q37 119 101.5 177.5t139.5 58.5q65 0 103.5 -39t38.5 -97q0 -96 -91 -172q-69 44 -126 44q-55 0 -95.5 -48t-57.5 -124v-296l236 -48l-12 -137h-628z" />
<glyph unicode="s" horiz-adv-x="784" d="M52 154q0 62 43 101t119 45q29 -101 78 -153.5t108 -52.5q121 0 121 82q0 31 -32.5 61t-81.5 53.5t-106 56.5t-106 68.5t-81.5 91t-32.5 122.5q0 46 19.5 94.5t58.5 95t109.5 76t160.5 29.5q129 0 208.5 -44t79.5 -126q0 -63 -47 -105.5t-118 -48.5l-20 64 q-37 144 -151 144q-45 0 -71.5 -27t-26.5 -67q0 -36 34 -68.5t85 -57.5t110 -58.5t110 -69t85 -91.5t34 -123q0 -127 -107.5 -204t-262.5 -77q-131 0 -225 54.5t-94 134.5z" />
<glyph unicode="t" horiz-adv-x="743" d="M41 723v101q142 97 255 258h108v-220h278l-10 -142h-271l-2 -384q0 -87 33.5 -124t114.5 -37q29 0 61 10.5t50 20.5l17 11l25 -93q-45 -63 -121.5 -105t-175.5 -42q-133 0 -193 67q-59 66 -59 229v5l3 445h-113z" />
<glyph unicode="u" horiz-adv-x="1102" d="M41 750l24 132l316 21l40 -39v-471q0 -102 29.5 -145t88.5 -43q48 0 82 15.5t68 47.5v395l-138 59l22 150l326 35l37 -39v-574q0 -72 26 -100t97 -48l36 -10l-16 -126q-106 -39 -199 -39q-80 0 -126 38t-46 109v12l-13 2q-48 -77 -121.5 -118t-156.5 -41 q-128 0 -186.5 68.5t-58.5 225.5v403z" />
<glyph unicode="v" horiz-adv-x="1055" d="M41 782l16 116h499l-14 -116l-119 -48l151 -471l162 468l-122 51l20 116h383l-19 -116l-96 -48l-267 -742l-203 -22l-274 761z" />
<glyph unicode="w" horiz-adv-x="1356" d="M41 782l17 118h450l-16 -116l-105 -58l89 -376l16 -2l116 488l184 18l126 -512l18 13l80 369l-106 58l16 118h392l-18 -116l-108 -58l-194 -736l-185 -24l-139 534l-126 -510l-183 -24l-209 758z" />
<glyph unicode="x" horiz-adv-x="1058" d="M49 0l12 115l122 47l210 279l-230 307l-100 40l20 118h364l33 -94l-47 -36l130 -184l120 161l-100 50l22 103h392l-18 -115l-114 -41l-211 -264l233 -318l115 -42l-16 -126h-378l-35 96l54 35l-140 201l-118 -176l121 -52l-17 -104h-424z" />
<glyph unicode="y" horiz-adv-x="1104" d="M40 -240q0 94 70 159q78 -69 188 -69q108 0 156 105l16 36l-298 740l-126 49l18 118h487l-15 -116l-108 -47l173 -463l185 456l-124 54l21 116h381l-12 -116l-99 -51l-327 -765q-83 -194 -170 -270.5t-224 -76.5q-76 0 -134 42.5t-58 98.5z" />
<glyph unicode="z" horiz-adv-x="866" d="M61 134l441 630h-242l-79 -180l-119 22l17 292h722l-3 -117l-462 -641h271l109 180l105 -22l-41 -298h-713z" />
<glyph unicode="{" horiz-adv-x="694" d="M16 368v148l53 11q57 11 88 57t39 111t9.5 141t7.5 149.5t24.5 134t69.5 98t134 37.5h170l-6 -151l-108 -5q-40 -2 -52.5 -64.5t-11 -151.5t-2 -180.5t-39 -163t-109.5 -87.5v-10q54 -24 87.5 -73.5t45 -109t15 -126t3 -128t3.5 -111.5t21 -81t51 -33l98 -5l11 -153h-175 q-84 0 -136 38t-71 99t-25.5 135.5t-7.5 151.5t-8 142.5t-36.5 112t-85.5 56.5z" />
<glyph unicode="|" horiz-adv-x="307" d="M75 -364v1624l156 -12v-1628z" />
<glyph unicode="}" horiz-adv-x="693" d="M43 -378l11 153l98 5q34 2 51 33t21 81t3.5 111.5t3 128t15 126t45 109t87.5 73.5v10q-74 16 -109.5 87.5t-39 163t-2 180.5t-11 151.5t-52.5 64.5l-108 5l-6 151h170q83 0 134 -37.5t69.5 -98t24.5 -134t7.5 -149.5t9.5 -141t39 -111t88 -57l53 -11v-148l-57 -11 q-56 -10 -85.5 -56.5t-36.5 -112t-8 -142.5t-7.5 -151.5t-25.5 -135.5t-71 -99t-136 -38h-175z" />
<glyph unicode="~" horiz-adv-x="989" d="M58 347q-1 41 6.5 84.5t27 88.5t48.5 77.5t76.5 49t105.5 7.5l396 -64q23 -4 41 2.5t27.5 18.5t15.5 24t8 21l2 9l119 -10q-1 -73 -18.5 -132.5t-51.5 -102t-89.5 -60.5t-126.5 -5l-383 69q-22 4 -39 -3.5t-25.5 -21.5t-14 -28t-7.5 -25l-1 -10z" />
<glyph unicode="&#xa1;" horiz-adv-x="434" d="M42 738q0 62 43.5 101.5t128.5 39.5t125 -40.5t40 -100.5q0 -55 -43 -95t-123 -40q-84 0 -127.5 40t-43.5 95zM79 -386q0 248 68 874l126 -24q5 -47 19.5 -171t23.5 -203t19.5 -180.5t16 -172t5.5 -109.5q0 -38 -46 -58.5t-122 -20.5q-54 0 -82 14t-28 51z" />
<glyph unicode="&#xa2;" horiz-adv-x="880" d="M52 434q0 96 29.5 183.5t79 153.5t113 113t134.5 71l-30 238l187 17l-22 -234q65 -1 116 -20.5t81.5 -50.5t46 -68.5t15.5 -78.5q0 -65 -42.5 -103t-116.5 -45q-40 112 -81 165t-98 53q-73 0 -113.5 -86t-40.5 -223q0 -86 28 -165.5t91 -136.5t149 -57q70 0 120.5 18 t107.5 53l32 -96q-35 -58 -115.5 -103.5t-175.5 -57.5l30 -224l-189 -16l24 241q-118 17 -200.5 83t-121 161.5t-38.5 214.5z" />
<glyph unicode="&#xa3;" horiz-adv-x="1206" d="M43 0l8 106l166 63q25 72 33.5 126t10.5 165l2 65l-184 -13l14 143l172 9l3 102q4 121 48 216t117 152.5t164 87.5t194 30q148 0 259 -44l-36 -371l-123 17l-60 214q-51 24 -118 24q-99 0 -134.5 -81t-37.5 -307v-34l250 15l-10 -141l-244 -13l-2 -32q-1 -12 -2.5 -50 t-2.5 -53.5t-3.5 -48.5t-6.5 -52t-10 -45t-15 -46.5t-20 -38.5l389 -27l165 257l131 -26l-46 -369h-1071z" />
<glyph unicode="&#xa4;" horiz-adv-x="836" d="M45 723l126 118l108 -116q61 51 143 51q80 0 134 -41l109 109l120 -124l-116 -104q30 -55 30 -126q0 -81 -36 -133l126 -119l-130 -116l-113 123q-66 -41 -137 -41q-61 0 -117 34l-111 -127l-126 122l120 114q-40 58 -40 139q0 66 34 122zM284 492q0 -68 37.5 -111 t93.5 -43q58 0 96 41t38 107q0 70 -37.5 112t-96.5 42q-56 0 -93.5 -41t-37.5 -107z" />
<glyph unicode="&#xa5;" horiz-adv-x="1151" d="M40 1128l23 116h500l-19 -116l-99 -49l182 -418l192 417l-130 50l18 116h402l-16 -116l-119 -48l-235 -476h250l-10 -119h-278v-97h284l-12 -114h-272v-116l146 -48l-10 -110h-540l14 101l124 65v108h-278l12 114h266v97h-275l15 119h228l-232 472z" />
<glyph unicode="&#xa6;" horiz-adv-x="317" d="M73 -358v777l170 -20v-779zM73 534v733l168 -19v-731z" />
<glyph unicode="&#xa7;" horiz-adv-x="963" d="M50 -234l17 290l145 -25l42 -195q23 -31 80.5 -56.5t119.5 -25.5q78 0 134.5 42t56.5 128q0 50 -37.5 92t-95.5 70.5t-128 62.5t-134 69t-114 90t-68.5 126t3.5 176l373 -186q29 -14 75.5 -35.5t72 -33.5t64.5 -32t61 -33.5t52 -34t46.5 -38.5t35.5 -42.5t28 -49.5 t15.5 -56t6.5 -66q0 -78 -30.5 -144.5t-80 -111t-113.5 -76t-130 -45.5t-130 -14q-105 0 -211 46t-156 108zM69 912q0 93 33.5 163t93.5 111t135.5 61.5t165.5 20.5q94 0 177.5 -24t136.5 -66l-18 -285l-135 17l-37 169q-22 26 -68 49t-93 23q-65 0 -106 -38.5t-41 -117.5 q0 -47 30.5 -86t79.5 -65t110 -54t122 -54t115.5 -64.5t90 -85.5t46.5 -117t-16 -159l-463 226q-52 25 -82 40.5t-73.5 40.5t-68.5 44.5t-54 48.5t-44.5 57.5t-26 66t-10.5 78.5z" />
<glyph unicode="&#xa8;" horiz-adv-x="683" d="M92 1453q0 37 28 64.5t81 27.5q55 0 83.5 -27t28.5 -65q0 -42 -28.5 -69.5t-84 -27.5t-82 28t-26.5 69zM402 1453q0 37 27.5 64.5t80.5 27.5q55 0 83.5 -27t28.5 -65q0 -42 -28.5 -69.5t-84 -27.5t-81.5 28t-26 69z" />
<glyph unicode="&#xa9;" horiz-adv-x="1443" d="M49 666q0 201 91.5 360.5t244.5 245.5t338 86q202 0 354.5 -87.5t233 -242t80.5 -354.5q0 -132 -52.5 -255.5t-141.5 -216t-215.5 -148.5t-266.5 -56q-200 0 -352 84.5t-233 236t-81 347.5zM214 682q0 -255 141.5 -403t365.5 -148q142 0 258 64t186 186.5t70 282.5 q0 93 -20 176.5t-62.5 155t-102.5 123.5t-145.5 81.5t-187.5 29.5q-149 0 -264.5 -72.5t-177 -196.5t-61.5 -279zM369 660q0 79 24 149.5t64 121.5t92 88.5t110 56t116 18.5q104 0 163.5 -48t59.5 -119q0 -53 -37.5 -82.5t-101.5 -35.5q-29 84 -61 124t-75 40 q-66 0 -101.5 -59.5t-35.5 -176.5q0 -53 14.5 -106t41 -99t71 -75t99.5 -29q60 0 101.5 14t87.5 42l27 -68q-34 -56 -115 -95.5t-173 -39.5t-163.5 28.5t-116.5 80t-68 120t-23 150.5z" />
<glyph unicode="&#xaa;" horiz-adv-x="799" d="M51 672q0 50 22 96t65 84t116 60t167 22v55q0 162 -101 162q-39 0 -52.5 -35.5t-22.5 -142.5q-73 -3 -119.5 24t-46.5 89q0 43 52.5 86.5t130 70t147.5 26.5q224 0 224 -245v-237q0 -63 16.5 -88t69.5 -35l33 -6l-16 -99q-34 -25 -65 -35.5t-77 -10.5q-127 0 -149 101 l-2 11l-9 2q-20 -45 -76.5 -80.5t-134.5 -35.5q-77 0 -124.5 41.5t-47.5 119.5zM264 733q0 -31 17 -52.5t53 -21.5q19 0 36 7.5t25 14.5t26 23v150q-88 -13 -122.5 -43.5t-34.5 -77.5z" />
<glyph unicode="&#xab;" horiz-adv-x="757" d="M86 448l1 21l268 350l59 -83l-140 -276l148 -294l-74 -90zM406 448l1 21l268 350l59 -83l-140 -276l148 -294l-74 -90z" />
<glyph unicode="&#xac;" horiz-adv-x="908" d="M56 509l12 153h773l2 -356l-163 -20v223h-624z" />
<glyph unicode="&#xad;" horiz-adv-x="587" d="M61 377l6 169l458 58l-7 -169z" />
<glyph unicode="&#xae;" horiz-adv-x="1147" d="M45 1022q0 125 43 224t116.5 160.5t165 93.5t194.5 32q106 0 200.5 -30.5t170 -90t120 -159t44.5 -226.5q0 -120 -45 -216t-122 -156t-173.5 -92t-204.5 -32q-100 0 -190.5 31.5t-162 91t-114 155t-42.5 214.5zM158 1036q0 -191 112 -300.5t292 -109.5q189 0 306.5 108 t117.5 282q0 193 -120 306.5t-302 113.5q-190 0 -298 -103t-108 -297zM268 775l7 55l78 32v373l-79 19l6 63q143 22 266 22q128 0 193.5 -35t65.5 -117q0 -53 -38.5 -94.5t-87.5 -58.5l-1 -1l59 -77q53 -72 136 -115l17 -9l-13 -57q-38 -12 -89 -12q-137 0 -202 155l-31 72 h-45v-124l64 -30l-5 -61h-301zM510 1071h69q57 28 57 94q0 45 -26.5 72t-76.5 27q-6 0 -14 -0.5t-9 -0.5v-192z" />
<glyph unicode="&#xaf;" horiz-adv-x="619" d="M77 1379l17 147h447l-17 -147h-447z" />
<glyph unicode="&#xb0;" horiz-adv-x="494" d="M56 1107q0 78 59 137.5t139 59.5q86 0 133.5 -47t47.5 -129q0 -84 -61.5 -142t-143.5 -58q-79 0 -126.5 46.5t-47.5 132.5zM167 1129q0 -49 20.5 -84.5t60.5 -35.5q34 0 52 25.5t18 70.5q0 48 -21.5 83t-58.5 35q-34 0 -52.5 -27t-18.5 -67z" />
<glyph unicode="&#xb1;" horiz-adv-x="689" d="M72 552l10 134h214v238l149 -12v-226h223l-13 -134h-210l1 -234l-150 8v226h-224zM121 138l14 138l494 21l-14 -143z" />
<glyph unicode="&#xb2;" horiz-adv-x="725" d="M53 672l136 103q90 68 139 133.5t49 115.5q0 105 -90 105q-46 0 -76 -34l-30 -151l-89 8l-29 198q43 53 128.5 84.5t179.5 31.5q130 0 200 -54.5t70 -133.5q0 -55 -26 -105.5t-73.5 -94t-94 -75t-107.5 -65.5l-73 -38l235 -10l83 136l84 -13l-26 -283h-586z" />
<glyph unicode="&#xb3;" horiz-adv-x="724" d="M54 545l38 238l116 -8l10 -128q26 -22 64 -22q50 0 81 28.5t31 78.5q0 52 -45.5 86t-116.5 27l-26 92q67 14 116 47.5t49 83.5q0 44 -26 73t-67 29q-40 0 -55 -11l-28 -153l-111 5l-25 185q26 37 111.5 68.5t163.5 31.5q136 0 218 -39t82 -121q0 -71 -63.5 -122.5 t-150.5 -73.5v-8q132 -2 191 -46t61 -130q2 -108 -117 -183.5t-295 -75.5q-142 0 -206 48z" />
<glyph unicode="&#xb4;" horiz-adv-x="487" d="M75 1390l114 314l222 -28l-182 -313z" />
<glyph unicode="&#xb5;" horiz-adv-x="1141" d="M43 754l23 132l317 22l40 -40v-476q0 -102 29.5 -147t88.5 -45q47 0 81 16.5t75 50.5v401l-146 58l22 150l327 36l37 -40v-579q0 -73 26 -101t98 -48l36 -9l-16 -127q-103 -38 -200 -38q-79 0 -125.5 38.5t-46.5 109.5v10l-12 4q-56 -78 -128 -119t-150 -41t-116 42 l-12 -2q16 -41 24 -145l20 -255l-200 26q9 88 24 388t15 468v180z" />
<glyph unicode="&#xb6;" horiz-adv-x="1480" d="M47 812q0 190 132 311.5t340 121.5h438v-1246h-475l9 106l250 63v942q-82 11 -140 11q-138 0 -208 -66t-70 -194q0 -120 75.5 -204t222.5 -83l-18 -146q-164 -9 -287 28.5t-196 128.5t-73 227zM1053 -1v1246h380l-14 -117l-174 -52v-912l186 -50l-10 -115h-368z" />
<glyph unicode="&#xb7;" horiz-adv-x="455" d="M85 460q0 53 42 92.5t122 39.5q84 0 127 -39t43 -93q0 -61 -43 -99.5t-127 -38.5t-124 39.5t-40 98.5z" />
<glyph unicode="&#xb8;" horiz-adv-x="436" d="M53 -141l183 144h114l-86 -83q23 -13 37 -22t34.5 -26.5t30.5 -39.5t10 -48q0 -75 -78 -114.5t-214 -57.5l-28 84q48 7 85 24t37 38q0 17 -23 37.5t-44 32.5t-58 31z" />
<glyph unicode="&#xb9;" horiz-adv-x="654" d="M51 530l9 102l141 30v436h-134l8 122l340 40h44v-604l144 -16l-6 -110h-546z" />
<glyph unicode="&#xba;" horiz-adv-x="849" d="M51 888q0 88 34.5 162.5t90.5 122.5t124.5 74.5t138.5 26.5q169 0 263.5 -97.5t94.5 -272.5q0 -176 -106.5 -285t-270.5 -109q-94 0 -166.5 30.5t-116 83.5t-65 119.5t-21.5 144.5zM280 942q0 -72 7.5 -125.5t25.5 -98t52 -68t82 -23.5q66 0 92.5 49t26.5 142 q0 52 -3 93.5t-13 87.5t-26.5 77t-46.5 51.5t-71 20.5q-72 0 -99 -53.5t-27 -152.5z" />
<glyph unicode="&#xbb;" horiz-adv-x="757" d="M-22 166l148 294l-140 276l59 83l268 -350l1 -21l-262 -372zM298 166l148 294l-140 276l59 83l268 -350l1 -21l-262 -372z" />
<glyph unicode="&#xbc;" horiz-adv-x="1652" d="M45 530l10 102l140 30v436h-133l7 122l340 40h44v-604l145 -16l-7 -110h-546zM263 12l482 576l466 620l240 -2l-2 -52l-470 -563l-432 -617zM933 282l454 440l84 -18q-10 -128 -10 -276v-135h148l-9 -133h-139v-87l110 -23l-6 -80h-450l4 74l118 30v89h-290zM1088 274 h157v200z" />
<glyph unicode="&#xbd;" horiz-adv-x="1713" d="M45 530l10 102l140 30v436h-133l7 122l340 40h44v-604l145 -16l-7 -110h-546zM253 12l482 576l466 620l240 -2l-2 -52l-470 -563l-432 -617zM1049 114l136 102q90 68 139 134t49 116q0 105 -90 105q-45 0 -76 -35l-30 -150l-89 7l-29 199q43 53 128.5 84.5t179.5 31.5 q130 0 200 -54.5t70 -133.5q0 -55 -26 -105.5t-73.5 -94t-94 -75t-107.5 -65.5l-73 -39l235 -10l83 137l84 -14l-26 -283h-586z" />
<glyph unicode="&#xbe;" horiz-adv-x="1640" d="M49 532l38 238l116 -8l10 -128q26 -22 64 -22q50 0 81 28.5t31 77.5q0 52 -45.5 86.5t-116.5 27.5l-26 92q67 14 116 47t49 83q0 44 -26 73.5t-67 29.5q-40 0 -55 -11l-28 -154l-111 6l-25 185q26 36 111.5 67.5t163.5 31.5q136 0 218 -39t82 -121q0 -71 -63.5 -122 t-150.5 -73v-9q132 -2 191 -46t61 -129q2 -108 -117 -183.5t-295 -75.5q-142 0 -206 48zM257 12l482 576l468 620l238 -2v-52l-472 -563l-432 -617zM921 282l454 440l84 -18q-10 -128 -10 -276v-135h148l-9 -133h-139v-87l110 -23l-6 -80h-450l4 74l118 30v89h-290z M1076 274h157v200z" />
<glyph unicode="&#xbf;" horiz-adv-x="697" d="M33 425q0 53 16 93.5t41.5 65.5t56 44t61 34t56 30.5t41.5 38.5t16 53q0 37 -13 80l118 24q36 -53 60.5 -122t24.5 -118q0 -54 -32.5 -90.5t-79 -56.5t-93 -39t-79 -51t-32.5 -79q0 -50 42 -85t88 -35q57 0 115.5 20t84.5 48q39 -11 73.5 -60.5t34.5 -103.5 q0 -60 -50 -103.5t-163 -43.5q-91 0 -181 64t-148 171t-58 221zM198 1148q0 62 43 101.5t128 39.5t125.5 -40.5t40.5 -100.5q0 -55 -43 -95t-123 -40q-84 0 -127.5 40t-43.5 95z" />
<glyph unicode="&#xc0;" d="M45 0l14 106l154 79l414 1036l248 48l390 -1088l143 -69l-11 -113h-620l14 106l169 79l-74 208h-405l-74 -210l187 -68l-13 -114h-536zM501 1728l217 38l140 -340l-157 -33zM535 548h301l-146 436z" />
<glyph unicode="&#xc1;" d="M45 0l14 106l154 79l414 1036l248 48l390 -1088l143 -69l-11 -113h-620l14 106l169 79l-74 208h-405l-74 -210l187 -68l-13 -114h-536zM535 548h301l-146 436zM607 1420l114 314l222 -28l-182 -313z" />
<glyph unicode="&#xc2;" d="M45 0l14 106l154 79l414 1036l248 48l390 -1088l143 -69l-11 -113h-620l14 106l169 79l-74 208h-405l-74 -210l187 -68l-13 -114h-536zM534 1363l164 216l187 21l180 -220l-169 -35l-104 85h-10l-87 -91zM535 548h301l-146 436z" />
<glyph unicode="&#xc3;" d="M45 0l14 106l154 79l414 1036l248 48l390 -1088l143 -69l-11 -113h-620l14 106l169 79l-74 208h-405l-74 -210l187 -68l-13 -114h-536zM446 1396q-3 19 3 48t21.5 61.5t38.5 58.5t60 38t80 2l206 -49q16 -4 31.5 7.5t23.5 25.5l8 13l82 -6q0 -26 -9 -56t-27.5 -61 t-45.5 -53.5t-63 -32.5t-81 1l-187 46q-19 4 -33.5 -10t-20.5 -30l-5 -16zM535 548h301l-146 436z" />
<glyph unicode="&#xc4;" d="M45 0l14 106l154 79l414 1036l248 48l390 -1088l143 -69l-11 -113h-620l14 106l169 79l-74 208h-405l-74 -210l187 -68l-13 -114h-536zM496 1489q0 37 28 64.5t81 27.5q55 0 83.5 -27t28.5 -65q0 -42 -28.5 -69.5t-84 -27.5t-82 28t-26.5 69zM535 548h301l-146 436z M806 1489q0 37 27.5 64.5t80.5 27.5q55 0 83.5 -27t28.5 -65q0 -42 -28.5 -69.5t-84 -27.5t-81.5 28t-26 69z" />
<glyph unicode="&#xc5;" d="M45 0l14 106l154 79l414 1036l248 48l390 -1088l143 -69l-11 -113h-620l14 106l169 79l-74 208h-405l-74 -210l187 -68l-13 -114h-536zM497 1495q0 72 58 118t163 46q108 0 161.5 -40t53.5 -115q0 -71 -58 -116.5t-170 -45.5q-208 0 -208 153zM535 548h301l-146 436z M663 1501q0 -18 4.5 -29.5t14 -15.5t15.5 -5t16 -1q48 3 50 52q0 49 -56 49q-8 0 -16.5 -2.5t-18 -15t-9.5 -32.5z" />
<glyph unicode="&#xc6;" horiz-adv-x="1880" d="M48 0l14 119l136 65l596 889l-196 58l15 113h1157l-32 -368l-128 20l-62 216h-344l9 -418l195 8l36 63l136 15l-33 -314h-125l-30 90l-176 5l8 -414l366 -9l123 240l123 -16l-30 -362h-1022l11 106l165 63l-6 289h-381l-175 -274l184 -68l-14 -116h-520zM651 592h297 l-6 441z" />
<glyph unicode="&#xc7;" horiz-adv-x="1232" d="M47 586q0 93 23 184.5t77.5 183t134.5 161t205 112.5t278 43q107 0 218 -26.5t172 -73.5l-30 -378l-130 18l-52 226q-35 44 -99.5 70t-138.5 26q-163 0 -258.5 -117.5t-95.5 -332.5q0 -248 122.5 -386t325.5 -138q181 0 348 123l48 -105q-56 -66 -167 -123t-244 -74 l-78 -75q23 -13 37 -22t34.5 -26.5t30.5 -39.5t10 -48q0 -75 -78 -114.5t-214 -57.5l-28 84q48 7 85 24t37 38q0 17 -23 37.5t-44 32.5t-58 31l167 132q-185 6 -322.5 78.5t-215 209.5t-77.5 323z" />
<glyph unicode="&#xc8;" horiz-adv-x="1236" d="M46 1134l15 110h1084l-31 -369l-129 19l-62 218h-407v-428h235l44 129l144 27l-34 -424l-139 -23l-33 169h-217v-411h429l122 226l124 -15l-30 -362h-1104l10 106l165 63v909zM396 1728l217 38l140 -340l-157 -33z" />
<glyph unicode="&#xc9;" horiz-adv-x="1236" d="M46 1134l15 110h1084l-31 -369l-129 19l-62 218h-407v-428h235l44 129l144 27l-34 -424l-139 -23l-33 169h-217v-411h429l122 226l124 -15l-30 -362h-1104l10 106l165 63v909zM477 1420l114 314l222 -28l-182 -313z" />
<glyph unicode="&#xca;" horiz-adv-x="1236" d="M46 1134l15 110h1084l-31 -369l-129 19l-62 218h-407v-428h235l44 129l144 27l-34 -424l-139 -23l-33 169h-217v-411h429l122 226l124 -15l-30 -362h-1104l10 106l165 63v909zM403 1363l164 216l187 21l180 -220l-169 -35l-104 85h-10l-87 -91z" />
<glyph unicode="&#xcb;" horiz-adv-x="1236" d="M46 1134l15 110h1084l-31 -369l-129 19l-62 218h-407v-428h235l44 129l144 27l-34 -424l-139 -23l-33 169h-217v-411h429l122 226l124 -15l-30 -362h-1104l10 106l165 63v909zM386 1489q0 37 27.5 64.5t80.5 27.5q55 0 83.5 -27t28.5 -65q0 -42 -28.5 -69.5t-84 -27.5 t-81.5 28t-26 69zM694 1489q0 37 28 64.5t81 27.5q55 0 83.5 -27t28.5 -65q0 -42 -28.5 -69.5t-84 -27.5t-82 28t-26.5 69z" />
<glyph unicode="&#xcc;" horiz-adv-x="755" d="M49 1131l15 113h636l-13 -118l-174 -52v-906l181 -48l-12 -120h-628l8 108l172 63v902zM172 1728l217 38l140 -340l-157 -33z" />
<glyph unicode="&#xcd;" horiz-adv-x="755" d="M49 1131l15 113h636l-13 -118l-174 -52v-906l181 -48l-12 -120h-628l8 108l172 63v902zM253 1420l114 314l222 -28l-182 -313z" />
<glyph unicode="&#xce;" horiz-adv-x="755" d="M49 1131l15 113h636l-13 -118l-174 -52v-906l181 -48l-12 -120h-628l8 108l172 63v902zM180 1363l164 216l187 21l180 -220l-169 -35l-104 85h-10l-87 -91z" />
<glyph unicode="&#xcf;" horiz-adv-x="755" d="M49 1131l15 113h636l-13 -118l-174 -52v-906l181 -48l-12 -120h-628l8 108l172 63v902zM162 1489q0 37 28 64.5t81 27.5q55 0 83.5 -27t28.5 -65q0 -42 -28.5 -69.5t-84 -27.5t-82 28t-26.5 69zM472 1489q0 37 27.5 64.5t80.5 27.5q55 0 83.5 -27t28.5 -65 q0 -42 -28.5 -69.5t-84 -27.5t-81.5 28t-26 69z" />
<glyph unicode="&#xd0;" horiz-adv-x="1453" d="M47 0l18 106l176 79v349l-180 -15l13 137l167 14v384l-172 38l8 116q322 51 552 51q179 0 317 -34t223.5 -89.5t140.5 -135.5t76 -163.5t21 -181.5q0 -100 -34 -196t-102 -179t-162 -145.5t-222 -98.5t-275 -36h-565zM521 153h144q99 0 176.5 27.5t124.5 71.5t77.5 104 t42 119t11.5 123q0 77 -18.5 149.5t-59 138t-98.5 114.5t-143 78t-187 29q-21 0 -36.5 -2.5t-33.5 -3.5v-409l228 23l-15 -140l-213 -17v-405z" />
<glyph unicode="&#xd1;" horiz-adv-x="1445" d="M51 1128l13 116h395l587 -842v671l-186 58l18 113h526l-20 -113l-167 -53v-1070l-218 -38l-588 820v-628l181 -48l-12 -114h-528l10 106l168 63v891zM463 1396q-3 19 3 48t21.5 61.5t38.5 58.5t60 38t80 2l206 -49q16 -4 31.5 7.5t23.5 25.5l8 13l82 -6q0 -26 -9 -56 t-27.5 -61t-45.5 -53.5t-63 -32.5t-81 1l-187 46q-19 4 -33.5 -10t-20.5 -30l-5 -16z" />
<glyph unicode="&#xd2;" horiz-adv-x="1397" d="M47 619q0 294 180 472.5t500 178.5q292 0 457.5 -172t165.5 -482q0 -288 -188.5 -465.5t-504.5 -177.5q-150 0 -267 48.5t-191.5 135.5t-113 204t-38.5 258zM363 674q0 -58 7.5 -117.5t23 -123t43 -118.5t64.5 -99t90 -69.5t117 -25.5q319 0 319 452q0 57 -7.5 116.5 t-22.5 124.5t-43 121t-64.5 101.5t-91 72t-119.5 26.5q-89 0 -152 -34.5t-98 -99t-50.5 -144t-15.5 -183.5zM543 1728l217 38l140 -340l-157 -33z" />
<glyph unicode="&#xd3;" horiz-adv-x="1397" d="M47 619q0 294 180 472.5t500 178.5q292 0 457.5 -172t165.5 -482q0 -288 -188.5 -465.5t-504.5 -177.5q-150 0 -267 48.5t-191.5 135.5t-113 204t-38.5 258zM363 674q0 -58 7.5 -117.5t23 -123t43 -118.5t64.5 -99t90 -69.5t117 -25.5q319 0 319 452q0 57 -7.5 116.5 t-22.5 124.5t-43 121t-64.5 101.5t-91 72t-119.5 26.5q-89 0 -152 -34.5t-98 -99t-50.5 -144t-15.5 -183.5zM625 1420l114 314l222 -28l-182 -313z" />
<glyph unicode="&#xd4;" horiz-adv-x="1397" d="M47 619q0 294 180 472.5t500 178.5q292 0 457.5 -172t165.5 -482q0 -288 -188.5 -465.5t-504.5 -177.5q-150 0 -267 48.5t-191.5 135.5t-113 204t-38.5 258zM363 674q0 -58 7.5 -117.5t23 -123t43 -118.5t64.5 -99t90 -69.5t117 -25.5q319 0 319 452q0 57 -7.5 116.5 t-22.5 124.5t-43 121t-64.5 101.5t-91 72t-119.5 26.5q-89 0 -152 -34.5t-98 -99t-50.5 -144t-15.5 -183.5zM491 1363l164 216l187 21l180 -220l-169 -35l-104 85h-10l-87 -91z" />
<glyph unicode="&#xd5;" horiz-adv-x="1397" d="M47 619q0 294 180 472.5t500 178.5q292 0 457.5 -172t165.5 -482q0 -288 -188.5 -465.5t-504.5 -177.5q-150 0 -267 48.5t-191.5 135.5t-113 204t-38.5 258zM363 674q0 -58 7.5 -117.5t23 -123t43 -118.5t64.5 -99t90 -69.5t117 -25.5q319 0 319 452q0 57 -7.5 116.5 t-22.5 124.5t-43 121t-64.5 101.5t-91 72t-119.5 26.5q-89 0 -152 -34.5t-98 -99t-50.5 -144t-15.5 -183.5zM483 1396q-3 19 3 48t21.5 61.5t38.5 58.5t60 38t80 2l206 -49q16 -4 31.5 7.5t23.5 25.5l8 13l82 -6q0 -26 -9 -56t-27.5 -61t-45.5 -53.5t-63 -32.5t-81 1 l-187 46q-19 4 -33.5 -10t-20.5 -30l-5 -16z" />
<glyph unicode="&#xd6;" horiz-adv-x="1397" d="M47 619q0 294 180 472.5t500 178.5q292 0 457.5 -172t165.5 -482q0 -288 -188.5 -465.5t-504.5 -177.5q-150 0 -267 48.5t-191.5 135.5t-113 204t-38.5 258zM363 674q0 -58 7.5 -117.5t23 -123t43 -118.5t64.5 -99t90 -69.5t117 -25.5q319 0 319 452q0 57 -7.5 116.5 t-22.5 124.5t-43 121t-64.5 101.5t-91 72t-119.5 26.5q-89 0 -152 -34.5t-98 -99t-50.5 -144t-15.5 -183.5zM534 1489q0 37 27.5 64.5t80.5 27.5q55 0 83.5 -27t28.5 -65q0 -42 -28.5 -69.5t-84 -27.5t-81.5 28t-26 69zM842 1489q0 37 28 64.5t81 27.5q55 0 83.5 -27 t28.5 -65q0 -42 -28.5 -69.5t-84 -27.5t-82 28t-26.5 69z" />
<glyph unicode="&#xd7;" horiz-adv-x="612" d="M48 618l116 90l148 -154l167 166l89 -118l-160 -145l158 -159l-114 -94l-148 162l-160 -163l-92 116l155 143z" />
<glyph unicode="&#xd8;" horiz-adv-x="1437" d="M47 619q0 144 48.5 264t138 206t221.5 133.5t292 47.5q155 0 280 -50l58 73l197 -21l-109 -137q105 -85 161 -216.5t56 -302.5q0 -141 -52 -261t-145 -204t-226 -131t-290 -47q-158 0 -284 55l-62 -88l-196 26l110 155q-97 87 -147.5 215t-50.5 283zM383 674 q0 -92 19 -189.5t58 -176.5l466 708q-89 119 -227 119q-72 0 -127 -23t-90.5 -63.5t-58 -99.5t-31.5 -126t-9 -149zM510 229q87 -108 218 -108q319 0 319 452q0 90 -18 187.5t-56 177.5z" />
<glyph unicode="&#xd9;" horiz-adv-x="1535" d="M41 1131l21 113h631l-15 -113l-168 -53v-552q0 -182 86 -269.5t236 -87.5q138 0 215 84t77 257l1 563l-179 58l14 113h532l-14 -113l-166 -53l-4 -538q-3 -288 -137 -427.5t-404 -139.5q-56 0 -103 4t-104.5 16.5t-102.5 34t-89.5 59.5t-74 90t-47.5 128t-18 171v597z M561 1728l217 38l140 -340l-157 -33z" />
<glyph unicode="&#xda;" horiz-adv-x="1535" d="M41 1131l21 113h631l-15 -113l-168 -53v-552q0 -182 86 -269.5t236 -87.5q138 0 215 84t77 257l1 563l-179 58l14 113h532l-14 -113l-166 -53l-4 -538q-3 -288 -137 -427.5t-404 -139.5q-56 0 -103 4t-104.5 16.5t-102.5 34t-89.5 59.5t-74 90t-47.5 128t-18 171v597z M642 1420l114 314l222 -28l-182 -313z" />
<glyph unicode="&#xdb;" horiz-adv-x="1535" d="M41 1131l21 113h631l-15 -113l-168 -53v-552q0 -182 86 -269.5t236 -87.5q138 0 215 84t77 257l1 563l-179 58l14 113h532l-14 -113l-166 -53l-4 -538q-3 -288 -137 -427.5t-404 -139.5q-56 0 -103 4t-104.5 16.5t-102.5 34t-89.5 59.5t-74 90t-47.5 128t-18 171v597z M568 1363l164 216l187 21l180 -220l-169 -35l-104 85h-10l-87 -91z" />
<glyph unicode="&#xdc;" horiz-adv-x="1535" d="M41 1131l21 113h631l-15 -113l-168 -53v-552q0 -182 86 -269.5t236 -87.5q138 0 215 84t77 257l1 563l-179 58l14 113h532l-14 -113l-166 -53l-4 -538q-3 -288 -137 -427.5t-404 -139.5q-56 0 -103 4t-104.5 16.5t-102.5 34t-89.5 59.5t-74 90t-47.5 128t-18 171v597z M550 1489q0 37 28 64.5t81 27.5q55 0 83.5 -27t28.5 -65q0 -42 -28.5 -69.5t-84 -27.5t-82 28t-26.5 69zM860 1489q0 37 27.5 64.5t80.5 27.5q55 0 83.5 -27t28.5 -65q0 -42 -28.5 -69.5t-84 -27.5t-81.5 28t-26 69z" />
<glyph unicode="&#xdd;" horiz-adv-x="1310" d="M41 1128l22 116h584l-20 -116l-116 -49l213 -389l207 386l-140 52l16 116h460l-18 -116l-119 -50l-331 -564v-346l166 -58l-12 -110h-604l14 106l154 63v325l-340 582zM489 1420l114 314l222 -28l-182 -313z" />
<glyph unicode="&#xde;" horiz-adv-x="1185" d="M49 1131l15 113h636l-14 -118l-174 -52v-73q70 7 121 7q92 0 164 -8.5t138.5 -32t110 -63t69.5 -103t26 -149.5q0 -177 -133 -289t-338 -112q-56 0 -98 5l-25 130q152 -5 228.5 49t76.5 175q0 114 -63 181t-190 67q-45 0 -87 -7v-679l208 -50l-13 -122h-655l10 108 l172 62v903z" />
<glyph unicode="&#xdf;" horiz-adv-x="1265" d="M46 0l12 116l153 57v569h-147l9 107l138 23q12 185 149 309.5t331 124.5q164 0 254.5 -64.5t90.5 -187.5q0 -55 -28 -99.5t-68 -73t-80 -53.5t-68 -54t-28 -60q0 -30 25.5 -56t66 -48t89.5 -45t98 -52t89.5 -64t66 -87t25.5 -114q0 -127 -107 -204.5t-262 -77.5 q-131 0 -225.5 54t-94.5 134q0 67 43.5 105t118.5 43q25 -96 76.5 -151.5t110.5 -55.5q61 0 90.5 17t29.5 64q0 26 -24 50.5t-63 46.5t-86 46t-93.5 54t-85.5 65t-63 84.5t-24 107.5q0 62 23 113.5t56 86t66 63.5t56 59.5t23 61.5q0 72 -43 117t-124 45q-33 0 -62.5 -12 t-56.5 -38t-43.5 -76t-16.5 -118v-932h-397z" />
<glyph unicode="&#xe0;" horiz-adv-x="928" d="M51 178q0 130 118.5 221.5t340.5 99.5v75q0 91 -39 152t-112 61q-52 0 -69 -44t-27 -171q-38 0 -66 4t-57.5 15t-45 36t-15.5 62q0 54 65 109.5t160.5 90.5t180.5 35q260 0 260 -307v-315v-22q0 -21 1 -39.5t3.5 -24.5t7 -18t11 -16t16.5 -11t24 -11t32 -7l39 -7 l-19 -128q-64 -39 -159 -39q-77 0 -111.5 35t-48.5 97l-3 14l-12 3q-24 -56 -98.5 -104t-168.5 -48q-93 0 -150.5 52.5t-57.5 149.5zM282 1384l217 38l140 -340l-157 -33zM287 247q0 -37 25.5 -66t69.5 -29q65 0 128 59v202q-223 -37 -223 -166z" />
<glyph unicode="&#xe1;" horiz-adv-x="928" d="M51 178q0 130 118.5 221.5t340.5 99.5v75q0 91 -39 152t-112 61q-52 0 -69 -44t-27 -171q-38 0 -66 4t-57.5 15t-45 36t-15.5 62q0 54 65 109.5t160.5 90.5t180.5 35q260 0 260 -307v-315v-22q0 -21 1 -39.5t3.5 -24.5t7 -18t11 -16t16.5 -11t24 -11t32 -7l39 -7 l-19 -128q-64 -39 -159 -39q-77 0 -111.5 35t-48.5 97l-3 14l-12 3q-24 -56 -98.5 -104t-168.5 -48q-93 0 -150.5 52.5t-57.5 149.5zM287 247q0 -37 25.5 -66t69.5 -29q65 0 128 59v202q-223 -37 -223 -166zM333 1076l114 314l222 -28l-182 -313z" />
<glyph unicode="&#xe2;" horiz-adv-x="928" d="M51 178q0 130 118.5 221.5t340.5 99.5v75q0 91 -39 152t-112 61q-52 0 -69 -44t-27 -171q-38 0 -66 4t-57.5 15t-45 36t-15.5 62q0 54 65 109.5t160.5 90.5t180.5 35q260 0 260 -307v-315v-22q0 -21 1 -39.5t3.5 -24.5t7 -18t11 -16t16.5 -11t24 -11t32 -7l39 -7 l-19 -128q-64 -39 -159 -39q-77 0 -111.5 35t-48.5 97l-3 14l-12 3q-24 -56 -98.5 -104t-168.5 -48q-93 0 -150.5 52.5t-57.5 149.5zM200 1020l164 216l187 21l180 -220l-169 -35l-104 85h-10l-87 -91zM287 247q0 -37 25.5 -66t69.5 -29q65 0 128 59v202q-223 -37 -223 -166 z" />
<glyph unicode="&#xe3;" horiz-adv-x="928" d="M51 178q0 130 118.5 221.5t340.5 99.5v75q0 91 -39 152t-112 61q-52 0 -69 -44t-27 -171q-38 0 -66 4t-57.5 15t-45 36t-15.5 62q0 54 65 109.5t160.5 90.5t180.5 35q260 0 260 -307v-315v-22q0 -21 1 -39.5t3.5 -24.5t7 -18t11 -16t16.5 -11t24 -11t32 -7l39 -7 l-19 -128q-64 -39 -159 -39q-77 0 -111.5 35t-48.5 97l-3 14l-12 3q-24 -56 -98.5 -104t-168.5 -48q-93 0 -150.5 52.5t-57.5 149.5zM182 1053q-3 19 3 48t21.5 61.5t38.5 58.5t60 38t80 2l206 -49q16 -4 31.5 7.5t23.5 25.5l8 13l82 -6q0 -26 -9 -56t-27.5 -61t-45.5 -53.5 t-63 -32.5t-81 1l-187 46q-19 4 -33.5 -10t-20.5 -30l-5 -16zM287 247q0 -37 25.5 -66t69.5 -29q65 0 128 59v202q-223 -37 -223 -166z" />
<glyph unicode="&#xe4;" horiz-adv-x="928" d="M51 178q0 130 118.5 221.5t340.5 99.5v75q0 91 -39 152t-112 61q-52 0 -69 -44t-27 -171q-38 0 -66 4t-57.5 15t-45 36t-15.5 62q0 54 65 109.5t160.5 90.5t180.5 35q260 0 260 -307v-315v-22q0 -21 1 -39.5t3.5 -24.5t7 -18t11 -16t16.5 -11t24 -11t32 -7l39 -7 l-19 -128q-64 -39 -159 -39q-77 0 -111.5 35t-48.5 97l-3 14l-12 3q-24 -56 -98.5 -104t-168.5 -48q-93 0 -150.5 52.5t-57.5 149.5zM212 1146q0 37 28 64.5t81 27.5q55 0 83.5 -27t28.5 -65q0 -42 -28.5 -69.5t-84 -27.5t-82 28t-26.5 69zM287 247q0 -37 25.5 -66t69.5 -29 q65 0 128 59v202q-223 -37 -223 -166zM522 1146q0 37 27.5 64.5t80.5 27.5q55 0 83.5 -27t28.5 -65q0 -42 -28.5 -69.5t-84 -27.5t-81.5 28t-26 69z" />
<glyph unicode="&#xe5;" horiz-adv-x="928" d="M51 178q0 130 118.5 221.5t340.5 99.5v75q0 91 -39 152t-112 61q-52 0 -69 -44t-27 -171q-38 0 -66 4t-57.5 15t-45 36t-15.5 62q0 54 65 109.5t160.5 90.5t180.5 35q260 0 260 -307v-315v-22q0 -21 1 -39.5t3.5 -24.5t7 -18t11 -16t16.5 -11t24 -11t32 -7l39 -7 l-19 -128q-64 -39 -159 -39q-77 0 -111.5 35t-48.5 97l-3 14l-12 3q-24 -56 -98.5 -104t-168.5 -48q-93 0 -150.5 52.5t-57.5 149.5zM223 1195q0 72 58 118t163 46q108 0 161.5 -40t53.5 -115q0 -71 -58 -116.5t-170 -45.5q-208 0 -208 153zM287 247q0 -37 25.5 -66 t69.5 -29q65 0 128 59v202q-223 -37 -223 -166zM389 1201q0 -18 4.5 -29.5t14 -15.5t15.5 -5t16 -1q48 3 50 52q0 49 -56 49q-8 0 -16.5 -2.5t-18 -15t-9.5 -32.5z" />
<glyph unicode="&#xe6;" horiz-adv-x="1319" d="M51 172q0 129 112 216t348 110v76q0 88 -37 144t-103 56q-53 0 -74 -40.5t-37 -145.5q-65 -6 -118 22.5t-53 101.5q0 57 69.5 107.5t159.5 77.5t163 27q157 0 210 -94q115 94 257 94q137 0 220 -93t83 -251q0 -22 -7 -76.5t-13 -80.5l-480 -11q6 -115 75.5 -192.5 t188.5 -77.5q123 0 238 63l19 -92q-61 -72 -163 -107.5t-210 -35.5q-115 0 -201 46t-121 131q-75 -171 -326 -171q-84 0 -142 50.5t-58 145.5zM287 241q0 -45 25.5 -71t71.5 -26q40 0 78.5 30t48.5 74v156q-68 -10 -114 -26.5t-69 -39t-32 -45.5t-9 -52zM750 512l241 25 q8 32 8 73q0 73 -27.5 117.5t-84.5 44.5t-95.5 -70.5t-41.5 -189.5z" />
<glyph unicode="&#xe7;" horiz-adv-x="835" d="M41 420q0 94 28 177.5t75.5 144t109.5 104.5t130.5 66t137.5 22q123 0 193.5 -56.5t70.5 -141.5q0 -63 -44.5 -98t-120.5 -42q-35 100 -72 147.5t-89 47.5q-78 0 -120 -71t-42 -209q0 -50 10 -100.5t32 -98.5t52.5 -85t75.5 -59.5t98 -22.5q72 0 121 16.5t103 49.5 l32 -81q-31 -52 -99 -93t-151 -58l-82 -79q23 -13 37 -22t34.5 -26.5t30.5 -39.5t10 -48q0 -75 -78 -114.5t-214 -57.5l-28 84q48 7 85 24t37 38q0 17 -23 37.5t-44 32.5t-58 31l168 132q-101 5 -179 41t-127.5 96.5t-74.5 139t-25 172.5z" />
<glyph unicode="&#xe8;" horiz-adv-x="820" d="M41 429q0 109 38.5 204t100.5 157.5t139.5 98t157.5 35.5q130 0 208.5 -93t78.5 -251q0 -24 -7 -80.5t-12 -83.5l-451 -10q3 -51 17.5 -94t42 -77.5t72 -54.5t102.5 -20q67 0 123 10t115 41l20 -113q-61 -63 -155.5 -95.5t-192.5 -32.5q-82 0 -153.5 29t-126 85t-86 145 t-31.5 200zM290 510l236 24q6 19 6 67q0 72 -27 114.5t-84 42.5q-53 0 -90.5 -67t-40.5 -181zM291 1384l217 38l140 -340l-157 -33z" />
<glyph unicode="&#xe9;" horiz-adv-x="820" d="M41 429q0 109 38.5 204t100.5 157.5t139.5 98t157.5 35.5q130 0 208.5 -93t78.5 -251q0 -24 -7 -80.5t-12 -83.5l-451 -10q3 -51 17.5 -94t42 -77.5t72 -54.5t102.5 -20q67 0 123 10t115 41l20 -113q-61 -63 -155.5 -95.5t-192.5 -32.5q-82 0 -153.5 29t-126 85t-86 145 t-31.5 200zM290 510l236 24q6 19 6 67q0 72 -27 114.5t-84 42.5q-53 0 -90.5 -67t-40.5 -181zM373 1076l114 314l222 -28l-182 -313z" />
<glyph unicode="&#xea;" horiz-adv-x="820" d="M41 429q0 109 38.5 204t100.5 157.5t139.5 98t157.5 35.5q130 0 208.5 -93t78.5 -251q0 -24 -7 -80.5t-12 -83.5l-451 -10q3 -51 17.5 -94t42 -77.5t72 -54.5t102.5 -20q67 0 123 10t115 41l20 -113q-61 -63 -155.5 -95.5t-192.5 -32.5q-82 0 -153.5 29t-126 85t-86 145 t-31.5 200zM239 1020l164 216l187 21l180 -220l-169 -35l-104 85h-10l-87 -91zM290 510l236 24q6 19 6 67q0 72 -27 114.5t-84 42.5q-53 0 -90.5 -67t-40.5 -181z" />
<glyph unicode="&#xeb;" horiz-adv-x="820" d="M41 429q0 109 38.5 204t100.5 157.5t139.5 98t157.5 35.5q130 0 208.5 -93t78.5 -251q0 -24 -7 -80.5t-12 -83.5l-451 -10q3 -51 17.5 -94t42 -77.5t72 -54.5t102.5 -20q67 0 123 10t115 41l20 -113q-61 -63 -155.5 -95.5t-192.5 -32.5q-82 0 -153.5 29t-126 85t-86 145 t-31.5 200zM238 1145q0 37 28 64.5t81 27.5q55 0 83.5 -27t28.5 -65q0 -42 -28.5 -69.5t-84 -27.5t-82 28t-26.5 69zM290 510l236 24q6 19 6 67q0 72 -27 114.5t-84 42.5q-53 0 -90.5 -67t-40.5 -181zM548 1145q0 37 27.5 64.5t80.5 27.5q55 0 83.5 -27t28.5 -65 q0 -42 -28.5 -69.5t-84 -27.5t-81.5 28t-26 69z" />
<glyph unicode="&#xec;" horiz-adv-x="665" d="M49 0l10 128l153 45v478l-149 80l22 127l328 24l40 -42v-667l161 -46l-11 -127h-554zM146 1384l217 38l140 -340l-157 -33z" />
<glyph unicode="&#xed;" horiz-adv-x="665" d="M49 0l10 128l153 45v478l-149 80l22 127l328 24l40 -42v-667l161 -46l-11 -127h-554zM227 1076l114 314l222 -28l-182 -313z" />
<glyph unicode="&#xee;" horiz-adv-x="666" d="M49 0l10 128l153 45v478l-149 80l22 127l328 24l40 -42v-667l161 -46l-11 -127h-554zM93 1020l164 216l187 21l180 -220l-169 -35l-104 85h-10l-87 -91z" />
<glyph unicode="&#xef;" horiz-adv-x="676" d="M49 0l10 128l153 45v478l-149 80l22 127l328 24l40 -42v-667l161 -46l-11 -127h-554zM117 1146q0 37 27.5 64.5t80.5 27.5q55 0 83.5 -27t28.5 -65q0 -42 -28.5 -69.5t-83.5 -27.5t-81.5 28t-26.5 69zM426 1146q0 37 27.5 64.5t80.5 27.5q55 0 83.5 -27t28.5 -65 q0 -42 -28.5 -69.5t-83.5 -27.5t-81.5 28t-26.5 69z" />
<glyph unicode="&#xf0;" horiz-adv-x="960" d="M49 451q0 96 35.5 188.5t92.5 159t130.5 107.5t146.5 41q40 0 80 -17.5t62 -57.5l5 4q-18 58 -84 182l-208 -40l9 101l153 32q-61 98 -120 151h187q62 -43 121 -107l157 33l-11 -109l-75 -15q85 -122 135 -277.5t50 -328.5q0 -232 -116.5 -378.5t-315.5 -146.5 q-113 0 -199 40t-136 108.5t-74.5 151.5t-24.5 178zM305 498q4 -171 63.5 -278.5t145.5 -107.5q90 0 120.5 77t30.5 249q0 150 -64.5 263.5t-140.5 115.5q-155 0 -155 -319z" />
<glyph unicode="&#xf1;" horiz-adv-x="1188" d="M49 0l14 115l146 57v508l-148 67l19 122l351 34l27 -29l-20 -115l13 -3q144 158 294 158q116 0 180 -72t64 -214v-456l146 -50l-16 -122h-443l5 115l69 57v331q0 179 -135 179q-94 0 -162 -68v-442l136 -50l-22 -122h-518zM315 1053q-3 19 3 48t21.5 61.5t38.5 58.5 t60 38t80 2l206 -49q16 -4 31.5 7.5t23.5 25.5l8 13l82 -6q0 -26 -9 -56t-27.5 -61t-45.5 -53.5t-63 -32.5t-81 1l-187 46q-19 4 -33.5 -10t-20.5 -30l-5 -16z" />
<glyph unicode="&#xf2;" horiz-adv-x="989" d="M50 446q0 110 41 203t108 152.5t149 92.5t167 33q205 0 317 -120.5t112 -340.5q0 -221 -126.5 -357t-325.5 -136q-115 0 -202 38t-138 104.5t-76.5 149.5t-25.5 181zM305 1384l217 38l140 -340l-157 -33zM306 512q0 -117 20.5 -202t71 -138t127.5 -53q81 0 121 63.5 t40 175.5q0 61 -5.5 116t-20 110.5t-37.5 95.5t-61 65t-87 25q-88 0 -128.5 -69.5t-40.5 -188.5z" />
<glyph unicode="&#xf3;" horiz-adv-x="989" d="M50 446q0 110 41 203t108 152.5t149 92.5t167 33q205 0 317 -120.5t112 -340.5q0 -221 -126.5 -357t-325.5 -136q-115 0 -202 38t-138 104.5t-76.5 149.5t-25.5 181zM306 512q0 -117 20.5 -202t71 -138t127.5 -53q81 0 121 63.5t40 175.5q0 61 -5.5 116t-20 110.5 t-37.5 95.5t-61 65t-87 25q-88 0 -128.5 -69.5t-40.5 -188.5zM386 1076l114 314l222 -28l-182 -313z" />
<glyph unicode="&#xf4;" horiz-adv-x="989" d="M50 446q0 110 41 203t108 152.5t149 92.5t167 33q205 0 317 -120.5t112 -340.5q0 -221 -126.5 -357t-325.5 -136q-115 0 -202 38t-138 104.5t-76.5 149.5t-25.5 181zM252 1020l164 216l187 21l180 -220l-169 -35l-104 85h-10l-87 -91zM306 512q0 -117 20.5 -202t71 -138 t127.5 -53q81 0 121 63.5t40 175.5q0 61 -5.5 116t-20 110.5t-37.5 95.5t-61 65t-87 25q-88 0 -128.5 -69.5t-40.5 -188.5z" />
<glyph unicode="&#xf5;" horiz-adv-x="989" d="M50 446q0 110 41 203t108 152.5t149 92.5t167 33q205 0 317 -120.5t112 -340.5q0 -221 -126.5 -357t-325.5 -136q-115 0 -202 38t-138 104.5t-76.5 149.5t-25.5 181zM245 1053q-3 19 3 48t21.5 61.5t38.5 58.5t60 38t80 2l206 -49q16 -4 31.5 7.5t23.5 25.5l8 13l82 -6 q0 -26 -9 -56t-27.5 -61t-45.5 -53.5t-63 -32.5t-81 1l-187 46q-19 4 -33.5 -10t-20.5 -30l-5 -16zM306 512q0 -117 20.5 -202t71 -138t127.5 -53q81 0 121 63.5t40 175.5q0 61 -5.5 116t-20 110.5t-37.5 95.5t-61 65t-87 25q-88 0 -128.5 -69.5t-40.5 -188.5z" />
<glyph unicode="&#xf6;" horiz-adv-x="989" d="M50 446q0 110 41 203t108 152.5t149 92.5t167 33q205 0 317 -120.5t112 -340.5q0 -221 -126.5 -357t-325.5 -136q-115 0 -202 38t-138 104.5t-76.5 149.5t-25.5 181zM274 1146q0 37 28 64.5t81 27.5q55 0 83.5 -27t28.5 -65q0 -42 -28.5 -69.5t-84 -27.5t-82 28t-26.5 69 zM306 512q0 -117 20.5 -202t71 -138t127.5 -53q81 0 121 63.5t40 175.5q0 61 -5.5 116t-20 110.5t-37.5 95.5t-61 65t-87 25q-88 0 -128.5 -69.5t-40.5 -188.5zM584 1146q0 37 27.5 64.5t80.5 27.5q55 0 83.5 -27t28.5 -65q0 -42 -28.5 -69.5t-84 -27.5t-81.5 28t-26 69z " />
<glyph unicode="&#xf7;" horiz-adv-x="911" d="M45 432l12 146h811l-10 -146h-813zM283 223q0 53 42 93t122 40q84 0 127 -39t43 -93q0 -61 -43 -100.5t-127 -39.5t-124 40t-40 99zM283 786q0 53 42 92.5t122 39.5q84 0 127 -39t43 -93q0 -61 -43 -100t-127 -39t-124 40t-40 99z" />
<glyph unicode="&#xf8;" horiz-adv-x="1022" d="M43 -16l115 138q-97 124 -97 324q0 110 41.5 203t108.5 152.5t149 92.5t167 33q135 0 232 -54l43 53l180 -14l-111 -138q85 -117 85 -308q0 -221 -126.5 -357t-325.5 -136q-134 0 -231 52l-44 -55zM318 512q0 -131 26 -220l294 382q-53 96 -151 96q-88 0 -128.5 -69.5 t-40.5 -188.5zM382 205q55 -86 155 -86q81 0 120.5 63.5t39.5 175.5q0 130 -24 223z" />
<glyph unicode="&#xf9;" horiz-adv-x="1102" d="M41 750l24 132l316 21l40 -39v-471q0 -102 29.5 -145t88.5 -43q48 0 82 15.5t68 47.5v395l-138 59l22 150l326 35l37 -39v-574q0 -72 26 -100t97 -48l36 -10l-16 -126q-106 -39 -199 -39q-80 0 -126 38t-46 109v12l-13 2q-48 -77 -121.5 -118t-156.5 -41 q-128 0 -186.5 68.5t-58.5 225.5v403zM341 1384l217 38l140 -340l-157 -33z" />
<glyph unicode="&#xfa;" horiz-adv-x="1102" d="M41 750l24 132l316 21l40 -39v-471q0 -102 29.5 -145t88.5 -43q48 0 82 15.5t68 47.5v395l-138 59l22 150l326 35l37 -39v-574q0 -72 26 -100t97 -48l36 -10l-16 -126q-106 -39 -199 -39q-80 0 -126 38t-46 109v12l-13 2q-48 -77 -121.5 -118t-156.5 -41 q-128 0 -186.5 68.5t-58.5 225.5v403zM357 1076l114 314l222 -28l-182 -313z" />
<glyph unicode="&#xfb;" horiz-adv-x="1102" d="M41 750l24 132l316 21l40 -39v-471q0 -102 29.5 -145t88.5 -43q48 0 82 15.5t68 47.5v395l-138 59l22 150l326 35l37 -39v-574q0 -72 26 -100t97 -48l36 -10l-16 -126q-106 -39 -199 -39q-80 0 -126 38t-46 109v12l-13 2q-48 -77 -121.5 -118t-156.5 -41 q-128 0 -186.5 68.5t-58.5 225.5v403zM309 1020l164 216l187 21l180 -220l-169 -35l-104 85h-10l-87 -91z" />
<glyph unicode="&#xfc;" horiz-adv-x="1102" d="M41 750l24 132l316 21l40 -39v-471q0 -102 29.5 -145t88.5 -43q48 0 82 15.5t68 47.5v395l-138 59l22 150l326 35l37 -39v-574q0 -72 26 -100t97 -48l36 -10l-16 -126q-106 -39 -199 -39q-80 0 -126 38t-46 109v12l-13 2q-48 -77 -121.5 -118t-156.5 -41 q-128 0 -186.5 68.5t-58.5 225.5v403zM304 1146q0 37 27.5 64.5t80.5 27.5q55 0 83.5 -27t28.5 -65q0 -42 -28.5 -69.5t-84 -27.5t-81.5 28t-26 69zM612 1146q0 37 28 64.5t81 27.5q55 0 83.5 -27t28.5 -65q0 -42 -28.5 -69.5t-84 -27.5t-82 28t-26.5 69z" />
<glyph unicode="&#xfd;" horiz-adv-x="1104" d="M40 -240q0 94 70 159q78 -69 188 -69q108 0 156 105l16 36l-298 740l-126 49l18 118h487l-15 -116l-108 -47l173 -463l185 456l-124 54l21 116h381l-12 -116l-99 -51l-327 -765q-83 -194 -170 -270.5t-224 -76.5q-76 0 -134 42.5t-58 98.5zM423 1076l114 314l222 -28 l-182 -313z" />
<glyph unicode="&#xfe;" horiz-adv-x="1085" d="M40 -373l13 118l154 54l-1 1280l-162 78l18 120l342 24l42 -39v-380l-15 -122l13 -3q128 161 274 161q137 0 229.5 -112.5t92.5 -325.5q0 -229 -129.5 -362.5t-326.5 -133.5q-90 0 -128 16l-2 164q155 -52 242.5 14t87.5 220q0 307 -160 307q-86 0 -180 -77v-831l200 -50 l-17 -120h-587z" />
<glyph unicode="&#xff;" horiz-adv-x="1104" d="M40 -240q0 94 70 159q78 -69 188 -69q108 0 156 105l16 36l-298 740l-126 49l18 118h487l-15 -116l-108 -47l173 -463l185 456l-124 54l21 116h381l-12 -116l-99 -51l-327 -765q-83 -194 -170 -270.5t-224 -76.5q-76 0 -134 42.5t-58 98.5zM332 1146q0 37 27.5 64.5 t80.5 27.5q55 0 83.5 -27t28.5 -65q0 -42 -28.5 -69.5t-84 -27.5t-81.5 28t-26 69zM640 1146q0 37 28 64.5t81 27.5q55 0 83.5 -27t28.5 -65q0 -42 -28.5 -69.5t-84 -27.5t-82 28t-26.5 69z" />
<glyph unicode="&#x152;" horiz-adv-x="1770" d="M32 619q0 151 35 269t106.5 204.5t188 132t272.5 45.5q111 0 192 -28l858 2l-30 -369l-129 19l-61 218h-400v-418l240 8l30 61l160 17l-33 -318l-151 3l-26 89l-220 8v-425l440 1l122 239l124 -15l-30 -362h-940q-103 -27 -217 -27q-176 0 -296.5 81t-177.5 224t-57 341z M366 674q0 -64 6.5 -130t25.5 -141.5t48 -132.5t78 -95t112 -38q73 0 148 44v911q-96 48 -176 48q-122 0 -182 -110t-60 -356z" />
<glyph unicode="&#x153;" horiz-adv-x="1418" d="M27 446q0 110 39.5 203t104 152t144.5 92t165 33q92 0 173.5 -34.5t124.5 -87.5q125 120 284 120q137 0 219 -93t82 -251q0 -22 -6.5 -75.5t-12.5 -78.5l-480 -5q3 -116 74.5 -195.5t189.5 -79.5q126 0 236 60l22 -93q-61 -72 -163.5 -107.5t-210.5 -35.5 q-159 0 -275 116q-118 -114 -279 -114q-115 0 -200 38t-134.5 105t-73 149.5t-23.5 181.5zM284 512q0 -177 51.5 -283.5t154.5 -106.5q71 0 109.5 63.5t38.5 172.5q0 78 -9 146t-29.5 131t-61.5 100t-98 37q-45 0 -76.5 -19.5t-48.5 -56t-24 -81t-7 -103.5zM863 522l242 18 q7 28 7 70q0 73 -27.5 117.5t-84.5 44.5q-58 0 -96 -66t-41 -184z" />
<glyph unicode="&#x178;" horiz-adv-x="1310" d="M41 1128l22 116h584l-20 -116l-116 -49l213 -389l207 386l-140 52l16 116h460l-18 -116l-119 -50l-331 -564v-346l166 -58l-12 -110h-604l14 106l154 63v325l-340 582zM440 1489q0 37 28 64.5t81 27.5q55 0 83.5 -27t27.5 -65q0 -42 -28 -69.5t-83.5 -27.5t-82 28 t-26.5 69zM750 1489q0 37 27.5 64.5t80.5 27.5q55 0 83.5 -27t28.5 -65q0 -42 -28.5 -69.5t-84 -27.5t-81.5 28t-26 69z" />
<glyph unicode="&#x2c6;" horiz-adv-x="677" d="M72 1327l164 216l187 21l180 -220l-169 -35l-104 85h-10l-87 -91z" />
<glyph unicode="&#x2dc;" horiz-adv-x="706" d="M76 1349q-3 19 3 48t21.5 61.5t38.5 58.5t60 38t80 2l206 -49q16 -4 31.5 7.5t23.5 25.5l8 13l82 -6q0 -26 -9 -56t-27.5 -61t-45.5 -53.5t-63 -32.5t-81 1l-187 46q-19 4 -33.5 -10t-20.5 -30l-5 -16z" />
<glyph unicode="&#x2000;" horiz-adv-x="883" />
<glyph unicode="&#x2001;" horiz-adv-x="1766" />
<glyph unicode="&#x2002;" horiz-adv-x="883" />
<glyph unicode="&#x2003;" horiz-adv-x="1766" />
<glyph unicode="&#x2004;" horiz-adv-x="588" />
<glyph unicode="&#x2005;" horiz-adv-x="441" />
<glyph unicode="&#x2006;" horiz-adv-x="294" />
<glyph unicode="&#x2007;" horiz-adv-x="294" />
<glyph unicode="&#x2008;" horiz-adv-x="220" />
<glyph unicode="&#x2009;" horiz-adv-x="353" />
<glyph unicode="&#x200a;" horiz-adv-x="98" />
<glyph unicode="&#x2010;" horiz-adv-x="632" d="M61 378l14 138l494 21l-14 -143z" />
<glyph unicode="&#x2011;" horiz-adv-x="632" d="M61 378l14 138l494 21l-14 -143z" />
<glyph unicode="&#x2012;" horiz-adv-x="632" d="M61 378l14 138l494 21l-14 -143z" />
<glyph unicode="&#x2013;" horiz-adv-x="816" d="M61 388l18 146l674 7l-23 -147z" />
<glyph unicode="&#x2014;" horiz-adv-x="1387" d="M61 388l18 146l1245 7l-21 -147z" />
<glyph unicode="&#x2018;" horiz-adv-x="485" d="M22 945q0 52 17 103t54 102t107.5 91.5t166.5 59.5l33 -93q-87 -25 -130 -74.5t-43 -102.5q0 -42 28.5 -70t72.5 -28q22 0 42 7q23 -46 23 -80q0 -71 -47.5 -111.5t-114.5 -40.5q-95 0 -152 62.5t-57 174.5z" />
<glyph unicode="&#x2019;" horiz-adv-x="487" d="M85 801q87 25 130 74.5t43 102.5q0 42 -28.5 70t-72.5 28q-22 0 -42 -7q-23 46 -23 80q0 71 47.5 111.5t114.5 40.5q95 0 152 -62.5t57 -174.5q0 -52 -17 -103t-54 -102t-107.5 -91.5t-166.5 -59.5z" />
<glyph unicode="&#x201a;" horiz-adv-x="498" d="M91 -252q87 25 130 74.5t43 102.5q0 42 -28.5 70t-72.5 28q-22 0 -42 -7q-23 46 -23 80q0 71 47.5 111.5t114.5 40.5q95 0 152 -62.5t57 -174.5q0 -52 -17 -103t-54 -102t-107.5 -91.5t-166.5 -59.5z" />
<glyph unicode="&#x201c;" horiz-adv-x="896" d="M23 942q0 52 17 103t54 102t107.5 91.5t166.5 59.5l33 -93q-87 -25 -130 -74.5t-43 -102.5q0 -42 28.5 -70t72.5 -28q22 0 42 7q23 -46 23 -80q0 -71 -47.5 -111.5t-114.5 -40.5q-95 0 -152 62.5t-57 174.5zM433 942q0 52 17 103t54 102t107.5 91.5t166.5 59.5l33 -93 q-87 -25 -130 -74.5t-43 -102.5q0 -42 28.5 -70t72.5 -28q22 0 42 7q23 -46 23 -80q0 -71 -47.5 -111.5t-114.5 -40.5q-95 0 -152 62.5t-57 174.5z" />
<glyph unicode="&#x201d;" horiz-adv-x="897" d="M85 798q87 25 130 74.5t43 102.5q0 42 -28.5 70t-72.5 28q-22 0 -42 -7q-23 46 -23 80q0 71 47.5 111.5t114.5 40.5q95 0 152 -62.5t57 -174.5q0 -52 -17 -103t-54 -102t-107.5 -91.5t-166.5 -59.5zM495 798q87 25 130 74.5t43 102.5q0 42 -28.5 70t-72.5 28 q-22 0 -42 -7q-23 46 -23 80q0 71 47.5 111.5t114.5 40.5q95 0 152 -62.5t57 -174.5q0 -52 -17 -103t-54 -102t-107.5 -91.5t-166.5 -59.5z" />
<glyph unicode="&#x2022;" horiz-adv-x="405" d="M18 701q0 69 55 120.5t159 51.5q56 0 99.5 -15t69.5 -40t38.5 -55t12.5 -62q0 -79 -56 -129t-164 -50q-56 0 -99 15t-67 40.5t-36 56.5t-12 67z" />
<glyph unicode="&#x2026;" horiz-adv-x="405" d="M-35 110q0 53 42 92.5t122 39.5q84 0 127 -39t43 -93q0 -61 -43 -99.5t-127 -38.5t-124 39.5t-40 98.5zM379 110q0 53 42 92.5t122 39.5q84 0 127 -39t43 -93q0 -61 -43 -99.5t-127 -38.5t-124 39.5t-40 98.5zM781 110q0 53 42 92.5t122 39.5q84 0 127 -39t43 -93 q0 -61 -43 -99.5t-127 -38.5t-124 39.5t-40 98.5z" />
<glyph unicode="&#x202f;" horiz-adv-x="353" />
<glyph unicode="&#x2039;" horiz-adv-x="437" d="M49 448l1 21l268 350l59 -83l-140 -276l148 -294l-74 -90z" />
<glyph unicode="&#x203a;" horiz-adv-x="437" d="M15 166l148 294l-140 276l59 83l268 -350l1 -21l-262 -372z" />
<glyph unicode="&#x205f;" horiz-adv-x="441" />
<glyph unicode="&#x20ac;" horiz-adv-x="1268" d="M46 462l13 116h128v25q0 25 2 50h-130l13 117h137q20 79 57.5 151t94.5 135.5t128 110.5t163 74t195 27q222 0 352 -100l-30 -342l-131 18l-54 204q-47 45 -100.5 66t-128.5 21q-122 0 -194.5 -95t-82.5 -270h495l-24 -117h-470q3 -38 9 -75h438l-24 -116h-388 q21 -71 51.5 -130t72.5 -106.5t97 -74.5t118 -27q103 0 143 57l59 223l132 21l30 -306q-97 -82 -190 -112.5t-222 -30.5q-128 0 -234 36t-181 101.5t-123.5 153.5t-67.5 195h-153z" />
<glyph unicode="&#x2122;" horiz-adv-x="1273" d="M4 1261h569l-14 -194l-78 11l-23 112h-101v-407l87 -20l-7 -62h-309l4 58l78 26v405h-99l-31 -124l-74 9zM572 701l7 61l76 29l29 385l-82 22l5 63h267l33 -90l85 -264l89 272l31 82h260l-7 -63l-74 -20l28 -390l80 -23l-5 -64h-288l8 61l63 29l-25 310l-121 -381 l-122 -13l-132 389l-21 -308l70 -23l-9 -64h-245z" />
<glyph unicode="&#x25fc;" horiz-adv-x="905" d="M0 0v905h905v-905h-905z" />
</font>
</defs>
</svg>
